<?xml version="1.0" encoding="UTF-8"?>
<!-- Generated by Pixelmator Pro 3.7.1 -->
<svg width="982" height="154" viewBox="0 0 982 154" xmlns="http://www.w3.org/2000/svg">
    <path id="Yarvolk" fill="#ffffff" fill-rule="evenodd" stroke="none" d="M 835.372498 149 L 835.372498 142.938995 L 846.031494 142.938995 L 846.031494 10.223999 L 835.372498 10.223999 L 835.372498 4.162994 L 885.323486 4.162994 L 885.323486 10.223999 L 874.66449 10.223999 L 874.66449 77.313004 L 921.271484 26.317001 C 922.525513 24.92366 923.674988 23.356171 924.719971 21.614502 C 925.765015 19.872818 926.287476 18.235672 926.287476 16.703003 C 926.287476 14.33432 924.998657 12.662338 922.421021 11.686996 C 919.843323 10.711655 916.464539 10.223999 912.284485 10.223999 L 912.284485 4.162994 L 958.682495 4.162994 L 958.682495 10.223999 C 953.805786 10.223999 949.033691 11.547653 944.366028 14.195007 C 939.698303 16.842346 935.553162 20.18631 931.930481 24.227005 L 902.670471 56.412994 L 941.33551 111.797997 C 948.302185 121.551384 954.328308 128.97081 959.414001 134.056503 C 964.499695 139.142181 969.75946 142.311996 975.193481 143.56601 C 976.726196 143.844666 978.084656 144.227829 979.268982 144.7155 C 980.453369 145.203171 981.045471 145.795319 981.045471 146.492004 C 981.045471 148.442673 979.861206 150.044983 977.492493 151.299011 C 975.12384 152.553009 972.40686 153.179993 969.341492 153.179993 C 960.563477 153.179993 952.900208 151.786682 946.351501 149 C 939.802795 146.213318 933.916016 142.103027 928.690979 136.669006 C 923.466003 131.23497 918.206177 124.547043 912.911499 116.605003 L 884.696472 75.850006 L 874.66449 86.927002 L 874.66449 142.938995 L 885.323486 142.938995 L 885.323486 149 Z M 707.255493 149 L 707.255493 142.938995 L 717.91449 142.938995 L 717.91449 10.223999 L 707.255493 10.223999 L 707.255493 4.162994 L 757.206482 4.162994 L 757.206482 10.223999 L 746.547485 10.223999 L 746.547485 142.938995 L 765.357483 142.938995 C 772.184875 142.938995 778.942444 141.754669 785.630493 139.386002 C 792.318542 137.017319 798.031128 133.046356 802.768494 127.473 C 805.276489 124.546982 807.505798 121.621017 809.456482 118.695 C 811.407166 115.768982 813.148804 112.564354 814.681519 109.081001 C 815.238831 107.966331 815.830994 107.095505 816.458008 106.468498 C 817.085022 105.841499 818.095154 105.528 819.488525 105.528 C 820.603149 105.528 821.50885 105.876328 822.205505 106.572998 C 822.902161 107.269669 823.250488 108.105659 823.250488 109.081001 C 823.250488 110.613678 822.83252 113.469978 821.996521 117.650002 L 815.308472 149 Z M 539.637512 76.477005 C 539.637512 65.330276 541.518494 55.124207 545.280518 45.858505 C 549.042542 36.592789 554.302307 28.546371 561.059998 21.718994 C 567.817688 14.891632 575.6203 9.631851 584.468018 5.939499 C 593.315735 2.247147 602.755432 0.401001 612.787476 0.401001 C 622.81958 0.401001 632.294128 2.247147 641.211487 5.939499 C 650.128906 9.631851 657.931458 14.891632 664.619507 21.718994 C 671.307556 28.546371 676.567322 36.592789 680.398987 45.858505 C 684.230713 55.124207 686.146484 65.330276 686.146484 76.477005 C 686.146484 87.623718 684.230713 97.829788 680.398987 107.095497 C 676.567322 116.361214 671.307556 124.407631 664.619507 131.235001 C 657.931458 138.062378 650.128906 143.322144 641.211487 147.014496 C 632.294128 150.706848 622.81958 152.553009 612.787476 152.553009 C 602.755432 152.553009 593.315735 150.706848 584.468018 147.014496 C 575.6203 143.322144 567.817688 138.062378 561.059998 131.235001 C 554.302307 124.407631 549.042542 116.361214 545.280518 107.095497 C 541.518494 97.829788 539.637512 87.623718 539.637512 76.477005 Z M 572.241516 76.477005 C 572.241516 89.853073 573.390991 101.800781 575.690002 112.320503 C 577.989014 122.840218 582.099304 131.130463 588.020996 137.191498 C 593.942688 143.252533 602.19812 146.28299 612.787476 146.28299 C 623.516235 146.28299 631.806458 143.252533 637.658508 137.191498 C 643.510559 131.130463 647.62085 122.840218 649.989502 112.320503 C 652.358154 101.800781 653.54248 89.853073 653.54248 76.477005 C 653.54248 62.961594 652.358154 50.944214 649.989502 40.4245 C 647.62085 29.904785 643.510559 21.614532 637.658508 15.553497 C 631.806458 9.492462 623.516235 6.462006 612.787476 6.462006 C 602.19812 6.462006 593.942688 9.492462 588.020996 15.553497 C 582.099304 21.614532 577.989014 29.904785 575.690002 40.4245 C 573.390991 50.944214 572.241516 62.961594 572.241516 76.477005 Z M 272.744507 142.938995 L 272.744507 149 L 322.695496 149 L 322.695496 142.938995 L 312.036499 142.938995 L 312.036499 78.358002 L 323.32251 78.358002 L 348.193512 119.739998 C 352.652191 127.124702 357.075989 133.324982 361.464996 138.341003 C 365.854034 143.357025 371.009308 147.084152 376.931 149.522491 C 382.852692 151.960846 390.202454 153.179993 398.980499 153.179993 C 402.045837 153.179993 405.006653 152.553009 407.863007 151.299011 C 410.71936 150.044983 412.147491 148.442673 412.147491 146.492004 C 412.147491 145.795319 411.555328 145.203171 410.371002 144.7155 C 409.186646 144.227829 407.828186 143.844666 406.295502 143.56601 C 402.672821 142.729996 399.398529 141.510834 396.472504 139.908508 C 393.546478 138.306152 390.550842 135.728516 387.485504 132.175507 C 384.420166 128.622482 380.867188 123.502037 376.826508 116.814003 L 353.209503 77.313004 L 353.209503 76.477005 C 359.618866 75.362335 365.26181 73.585846 370.138489 71.147507 C 375.015198 68.709152 378.846832 65.260696 381.633514 60.802002 C 384.420166 56.343307 385.813507 50.491364 385.813507 43.246002 C 385.813507 30.984604 381.041382 21.405533 371.497009 14.508499 C 361.952606 7.611465 348.47226 4.162994 331.055511 4.162994 L 272.744507 4.162994 L 272.744507 10.223999 L 283.403503 10.223999 L 283.403503 142.938995 L 272.744507 142.938995 Z M 400.443512 4.162994 L 400.443512 10.223999 L 410.26651 10.223999 L 463.352509 145.238007 C 464.049164 147.049347 464.919983 148.616821 465.964996 149.940491 C 467.01001 151.264175 468.438171 151.925995 470.249512 151.925995 C 472.060852 151.925995 473.488983 151.299011 474.533997 150.044998 C 475.57901 148.790985 476.380157 147.397675 476.9375 145.86499 L 522.708496 25.063004 C 524.24115 21.30098 526.226685 17.887344 528.664978 14.822006 C 531.103333 11.756653 534.760803 10.223999 539.637512 10.223999 L 539.637512 4.162994 L 505.779541 4.162994 L 505.779541 10.223999 C 509.959534 10.223999 512.815796 11.025162 514.348511 12.627502 C 515.881165 14.229843 516.647522 15.936661 516.647522 17.748001 C 516.647522 18.723343 516.473328 19.872833 516.125 21.196503 C 515.776672 22.520172 515.393494 23.739334 514.975525 24.854004 L 481.535492 113.888 L 440.780487 10.223999 L 452.066498 10.223999 L 452.066498 4.162994 L 400.443512 4.162994 Z M 326.03949 72.296997 L 312.036499 72.296997 L 312.036499 10.223999 L 324.158508 10.223999 C 336.559235 10.223999 345.093323 13.080307 349.760986 18.792999 C 354.42868 24.505692 356.762512 32.517288 356.762512 42.828003 C 356.762512 53.417389 354.115204 60.976151 348.820496 65.504501 C 343.525818 70.032852 335.93222 72.296997 326.03949 72.296997 Z M 0.6265 4.162994 L 0.6265 10.223999 L 10.449501 10.223999 L 58.310501 91.942993 L 58.310501 142.938995 L 47.651501 142.938995 L 47.651501 149 L 97.811501 149 L 97.811501 142.938995 L 87.152496 142.938995 L 87.152496 86.718002 L 122.055496 25.063004 C 124.284851 21.440308 126.862488 18.061508 129.788498 14.926498 C 132.714508 11.791489 136.615814 10.223999 141.492493 10.223999 L 141.492493 4.162994 L 105.753502 4.162994 L 105.753502 10.223999 C 109.933517 10.223999 112.789825 11.025162 114.322502 12.627502 C 115.855171 14.229843 116.621498 15.936661 116.621498 17.748001 C 116.621498 18.723343 116.308006 19.872833 115.681 21.196503 C 115.053993 22.520172 114.461838 23.739334 113.904503 24.854004 L 82.763496 78.985001 L 42.426498 10.223999 L 53.712502 10.223999 L 53.712502 4.162994 L 0.6265 4.162994 Z M 123.727509 142.938995 L 123.727509 149 L 157.167496 149 L 157.167496 142.938995 C 152.987473 142.938995 150.13118 142.103012 148.598495 140.431 C 147.065826 138.759003 146.2995 137.017334 146.2995 135.205994 C 146.2995 134.509338 146.438828 133.533997 146.717499 132.279999 C 146.99617 131.026001 147.274826 129.911346 147.553497 128.936005 L 155.077499 107.408997 L 209.208496 107.408997 L 220.285507 142.938995 L 208.999496 142.938995 L 208.999496 149 L 260.622498 149 L 260.622498 142.938995 L 250.7995 142.938995 L 208.163498 8.970001 C 207.327499 6.322647 206.526337 4.232681 205.759995 2.699997 C 204.993668 1.167328 204.053177 0.401001 202.938507 0.401001 C 202.381165 0.401001 201.580002 0.540329 200.535004 0.819 C 199.48999 1.097672 198.619171 1.445999 197.922501 1.863998 C 195.971817 3.257339 192.836853 4.302322 188.517502 4.998993 C 184.198151 5.695663 179.321533 6.044006 173.887497 6.044006 C 173.33017 6.044006 172.598679 6.287827 171.692993 6.775497 C 170.787323 7.263168 170.334503 7.925003 170.334503 8.761002 C 170.334503 9.597 170.822159 10.293671 171.797501 10.850998 C 172.772842 11.40834 173.748169 11.826324 174.723495 12.104996 C 176.95285 12.522995 178.067505 13.776993 178.067505 15.867004 C 178.067505 16.703003 177.997833 17.434494 177.858505 18.061493 C 177.719162 18.688507 177.510162 19.419998 177.231506 20.255997 L 140.656494 128.100006 C 139.402496 132.001343 137.486679 135.449829 134.908997 138.445496 C 132.331314 141.441193 128.604187 142.938995 123.727509 142.938995 Z M 207.1185 101.139 L 157.167496 101.139 L 182.874496 25.272003 L 207.1185 101.139 Z"/>
</svg>
