<svg width="910" height="179" viewBox="0 0 910 179" fill="none" xmlns="http://www.w3.org/2000/svg">
<path d="M0 2.5H35.75L70.75 115H35.75L0 2.5ZM100.75 2.5L70.75 115L67.75 111.75L97.25 2.5H100.75ZM35.75 175.75V115H70.75V175.75H35.75Z" fill="white"/>
<path d="M211.482 175.75H175.482L136.982 2.5H171.482L211.482 175.75ZM164.982 115.75H110.482L111.232 112.5H164.982V115.75ZM96.7324 175.75H93.2324L135.732 2.5H139.232L96.7324 175.75Z" fill="white"/>
<path d="M231.592 175.75V2.5H266.592V175.75H231.592ZM276.592 89.5L308.842 85.5L352.342 175.75H316.842L276.592 89.5ZM275.342 5.75H263.092V2.5H297.092C306.425 2.5 314.675 4.41666 321.842 8.25C329.175 12.0833 334.925 17.4167 339.092 24.25C343.258 30.9167 345.342 38.5833 345.342 47.25C345.342 55.9167 343.258 63.5833 339.092 70.25C334.925 76.75 329.175 81.9167 321.842 85.75C314.675 89.4167 306.425 91.25 297.092 91.25H264.342V88H275.342C282.508 88 288.675 86.1667 293.842 82.5C299.008 78.8333 302.925 73.9167 305.592 67.75C308.425 61.5833 309.842 54.75 309.842 47.25C309.842 39.75 308.425 32.8333 305.592 26.5C302.925 20.1667 299.008 15.1667 293.842 11.5C288.675 7.66667 282.508 5.75 275.342 5.75Z" fill="white"/>
<path d="M361.113 2.5H396.113L432.363 175.75H397.363L361.113 2.5ZM469.363 2.5L433.113 175.75H429.613L465.863 2.5H469.363Z" fill="white"/>
<path d="M564.424 178.25C551.424 178.25 539.34 176.083 528.174 171.75C517.174 167.417 507.59 161.25 499.424 153.25C491.257 145.25 484.84 135.833 480.174 125C475.674 114 473.424 102 473.424 89C473.424 76 475.674 64.0833 480.174 53.25C484.84 42.25 491.257 32.8333 499.424 25C507.59 17 517.174 10.8333 528.174 6.49999C539.34 2.16666 551.424 0 564.424 0C577.424 0 589.424 2.16666 600.424 6.49999C611.424 10.8333 621.007 17 629.174 25C637.34 32.8333 643.674 42.25 648.174 53.25C652.84 64.0833 655.174 76 655.174 89C655.174 102 652.84 114 648.174 125C643.674 135.833 637.34 145.25 629.174 153.25C621.007 161.25 611.424 167.417 600.424 171.75C589.424 176.083 577.424 178.25 564.424 178.25ZM564.424 175C575.257 175 584.757 171.75 592.924 165.25C601.257 158.75 607.757 149.167 612.424 136.5C617.257 123.667 619.674 107.833 619.674 89C619.674 71.8333 617.507 56.8333 613.174 44C608.84 31.1667 602.59 21.1667 594.424 14C586.257 6.83332 576.257 3.24999 564.424 3.24999C553.59 3.24999 544.007 6.49999 535.674 13C527.34 19.5 520.84 29.0833 516.174 41.75C511.507 54.4167 509.174 70.1667 509.174 89C509.174 106 511.257 121 515.424 134C519.757 146.833 526.007 156.917 534.174 164.25C542.507 171.417 552.59 175 564.424 175Z" fill="white"/>
<path d="M712.881 175.75H677.881V2.5H712.881V175.75ZM700.631 175.75V172.5H776.131V175.75H700.631Z" fill="white"/>
<path d="M824.941 175.75H789.941V2.5H824.941V175.75ZM822.941 110.75L820.691 107L890.441 2.5H894.691L822.941 110.75ZM851.941 64.5L909.941 175.25V175.75H872.441L831.941 93.5L851.941 64.5Z" fill="white"/>
</svg>
