<?xml version="1.0" encoding="UTF-8"?>
<!-- Generated by Pixelmator Pro 3.7.1 -->
<svg width="974" height="149" viewBox="0 0 974 149" xmlns="http://www.w3.org/2000/svg">
    <path id="yarvolk" fill="#ffffff" fill-rule="evenodd" stroke="none" d="M 856.138 146 L 874.702026 146 L 874.702026 95.816002 L 897.754028 71.132004 L 952.018005 146 L 973.234009 146 L 909.585999 58.483994 L 961.401978 3.199997 L 951.202026 3.199997 L 874.702026 83.575996 L 874.702026 3.199997 L 856.138 3.199997 Z M 733.330017 146 L 733.330017 3.199997 L 751.893982 3.199997 L 751.893982 134.779999 L 825.538025 134.779999 L 825.538025 146 Z M 542.590027 74.599998 C 542.590027 82.216042 544.052002 90.341957 546.976013 98.977997 C 549.900024 107.614044 554.48999 115.603966 560.745972 122.947998 C 567.002014 130.292038 574.957947 136.377975 584.614014 141.205994 C 594.27002 146.034027 605.829956 148.447998 619.294006 148.447998 C 628.406067 148.447998 636.667969 147.326019 644.080017 145.082001 C 651.492065 142.837982 658.155945 139.812012 664.072021 136.003998 C 669.988037 132.195984 675.121948 127.810028 679.473999 122.846001 C 683.82605 117.881973 687.395996 112.646027 690.184021 107.138 C 692.971985 101.629974 695.080017 96.088028 696.507996 90.512001 C 697.936035 84.935974 698.650024 79.632027 698.650024 74.599998 C 698.650024 66.983963 697.085999 58.858047 693.958008 50.222 C 690.829956 41.585953 686.002014 33.596039 679.473999 26.251999 C 672.945984 18.907959 664.684021 12.822021 654.687988 7.994003 C 644.691956 3.16597 632.894043 0.751999 619.294006 0.751999 C 605.829956 0.751999 594.27002 3.131973 584.614014 7.891998 C 574.957947 12.652023 567.002014 18.669968 560.745972 25.945999 C 554.48999 33.222031 549.900024 41.21196 546.976013 49.916 C 544.052002 58.620041 542.590027 66.847961 542.590027 74.599998 Z M 562.58197 74.599998 C 562.58197 65.079956 564.044006 56.342041 566.968018 48.386002 C 569.892029 40.429962 573.903992 33.596024 579.004028 27.884003 C 584.104004 22.171967 590.121948 17.718018 597.057983 14.522003 C 603.994019 11.325989 611.541931 9.727997 619.702026 9.727997 C 627.726013 9.727997 635.307983 11.325989 642.447998 14.522003 C 649.588013 17.718018 655.843994 22.171967 661.216003 27.884003 C 666.588013 33.596024 670.838013 40.429962 673.966003 48.386002 C 677.093994 56.342041 678.65802 65.079956 678.65802 74.599998 C 678.65802 84.120049 677.093994 92.857964 673.966003 100.814003 C 670.838013 108.770042 666.588013 115.603973 661.216003 121.316002 C 655.843994 127.02803 649.588013 131.481995 642.447998 134.678009 C 635.307983 137.874023 627.726013 139.472 619.702026 139.472 C 611.541931 139.472 603.994019 137.874023 597.057983 134.678009 C 590.121948 131.481995 584.104004 127.02803 579.004028 121.316002 C 573.903992 115.603973 569.892029 108.770042 566.968018 100.814003 C 564.044006 92.857964 562.58197 84.120049 562.58197 74.599998 Z M 396.321991 3.199997 L 456.093994 146 L 468.334015 146 L 526.27002 3.199997 L 515.661987 3.199997 L 468.130005 120.704002 L 467.313995 120.704002 L 418.354004 3.199997 Z M 280.450012 3.199997 L 280.450012 146 L 299.014008 146 L 299.014008 82.963997 L 307.98999 82.963997 C 311.798004 82.963997 314.959991 83.303993 317.476013 83.984001 C 319.992004 84.664001 322.269989 85.819992 324.309998 87.452003 C 326.350006 89.084007 328.253998 91.191986 330.022003 93.776001 C 331.790009 96.360016 333.89798 99.555984 336.346008 103.363998 L 352.462006 127.232002 C 354.502014 130.360016 356.507996 133.215988 358.480011 135.800003 C 360.451996 138.384018 362.593994 140.593994 364.906006 142.429993 C 367.218018 144.266006 369.835999 145.727997 372.76001 146.81601 C 375.684021 147.904007 379.185974 148.447998 383.265991 148.447998 C 386.258026 148.447998 388.705994 148.311996 390.609985 148.040009 C 392.514008 147.768005 394.417999 147.088013 396.321991 146 L 396.321991 138.451996 C 395.641998 138.587997 394.962006 138.690002 394.282013 138.757996 C 393.60199 138.826004 392.921997 138.860001 392.242004 138.860001 C 389.385986 138.860001 386.870026 138.451996 384.694 137.636002 C 382.517975 136.819992 380.477997 135.630005 378.574005 134.06601 C 376.669983 132.501984 374.834015 130.598022 373.06601 128.354004 C 371.298004 126.109985 369.462006 123.560013 367.558014 120.704002 C 361.845978 112.407959 357.426025 105.778023 354.298004 100.814003 C 351.169983 95.849976 348.688019 92.008011 346.85199 89.288002 C 345.015991 86.567986 343.52002 84.596008 342.364014 83.372002 C 341.208008 82.147995 339.813995 81.128006 338.182007 80.311996 L 336.141998 79.292 L 336.141998 78.475998 C 342.670044 78.068001 348.279968 76.640015 352.971985 74.192001 C 357.664032 71.743988 361.505981 68.684021 364.497986 65.011993 C 367.490021 61.339981 369.665985 57.362015 371.026001 53.078003 C 372.386017 48.793976 373.06601 44.612015 373.06601 40.531998 C 373.06601 36.859985 372.35202 32.848022 370.924011 28.496002 C 369.496002 24.143982 367.048004 20.098022 363.579987 16.358002 C 360.111969 12.617981 355.386017 9.490005 349.402008 6.973999 C 343.417969 4.457993 335.870056 3.199997 326.757996 3.199997 Z M 299.014008 12.175995 L 319.618011 12.175995 C 324.786011 12.175995 329.44397 12.923996 333.59201 14.419998 C 337.740021 15.916 341.309998 17.98999 344.302002 20.641998 C 347.294006 23.294006 349.571991 26.455978 351.135986 30.128006 C 352.700012 33.800018 353.481995 37.811981 353.481995 42.164001 C 353.481995 45.836014 352.768005 49.541977 351.339996 53.281998 C 349.911987 57.022018 347.77002 60.421982 344.914001 63.481995 C 342.057983 66.542023 338.55603 69.023987 334.40799 70.928001 C 330.259979 72.832008 325.466034 73.783997 320.026001 73.783997 L 299.014008 73.783997 Z M 50.133999 91.940002 L 0.766 3.199997 L 21.778 3.199997 L 63.393997 78.475998 L 64.209999 78.475998 L 107.865997 3.199997 L 118.882004 3.199997 L 68.697998 90.103996 L 68.697998 146 L 50.133999 146 L 50.133999 91.940002 Z M 230.061996 146 L 210.477997 103.975998 L 140.098007 103.975998 L 122.145996 146 L 112.762001 146 L 173.145996 3.199997 L 183.345993 3.199997 L 249.850006 146 L 230.061996 146 Z M 143.973999 94.795998 L 206.194 94.795998 L 174.166 26.048004 L 173.350006 26.048004 L 143.973999 94.795998 Z"/>
</svg>
