<?xml version="1.0" encoding="UTF-8"?>
<!-- Generated by Pixelmator Pro 3.7.1 -->
<svg width="77" height="22" viewBox="0 0 77 22" xmlns="http://www.w3.org/2000/svg">
    <path id="Yarvolk" fill="#ffffff" fill-rule="evenodd" stroke="none" d="M 68.826904 21 L 66.54287 21 L 66.54287 0.215485 L 68.826904 0.215485 Z M 68.538757 16.281328 L 68.259903 15.999516 L 74.955902 7.143517 L 75.43557 7.143517 Z M 76.699089 21 L 74.259384 21 L 70.342278 13.630266 L 71.796059 11.718328 Z M 63.492775 21 L 61.208744 21 L 61.208744 0.215485 L 63.492775 0.215485 Z M 51.435822 21.27 C 50.048409 21.27 48.80389 20.962597 47.702229 20.347782 C 46.600567 19.732965 45.731865 18.883179 45.096096 17.798389 C 44.460327 16.713604 44.142448 15.471476 44.142448 14.071968 C 44.142448 12.664305 44.460327 11.420137 45.096096 10.33943 C 45.731865 9.25872 46.600567 8.410902 47.702229 7.795946 C 48.80389 7.180988 50.048409 6.873516 51.435822 6.873516 C 52.823235 6.873516 54.067684 7.180988 55.169205 7.795946 C 56.270725 8.410902 57.139359 9.25872 57.775127 10.33943 C 58.410896 11.420137 58.728775 12.664305 58.728775 14.071968 C 58.728775 15.471476 58.410896 16.713604 57.775127 17.798389 C 57.139359 18.883179 56.270725 19.732965 55.169205 20.347782 C 54.067684 20.962597 52.823235 21.27 51.435822 21.27 Z M 51.435822 20.918999 C 52.373234 20.918999 53.215076 20.643448 53.961376 20.092335 C 54.707676 19.541224 55.295204 18.751762 55.723972 17.72393 C 56.152737 16.696096 56.367119 15.478788 56.367119 14.071968 C 56.367119 12.718306 56.158646 11.528137 55.741688 10.501431 C 55.324734 9.474722 54.745083 8.671902 54.00272 8.092945 C 53.260357 7.513988 52.404732 7.224516 51.435822 7.224516 C 50.498409 7.224516 49.6591 7.500137 48.917862 8.05139 C 48.176624 8.602644 47.589096 9.387604 47.155266 10.406298 C 46.721436 11.42499 46.504524 12.646868 46.504524 14.071968 C 46.504524 15.415506 46.713493 16.603144 47.131432 17.634914 C 47.54937 18.666685 48.128952 19.471966 48.87019 20.050781 C 49.611427 20.629597 50.466629 20.918999 51.435822 20.918999 Z M 33.214951 7.143517 L 35.499405 7.143517 L 39.503841 21 L 37.21981 21 Z M 43.445843 7.143517 L 39.584843 21 L 39.19503 21 L 43.056026 7.143517 Z M 23.378422 7.143517 L 25.662453 7.143517 L 25.662453 21 L 23.378422 21 Z M 32.350861 10.62989 L 30.030968 10.62989 C 30.030968 9.773762 29.821651 9.066496 29.403008 8.50807 C 28.984365 7.949646 28.463707 7.670437 27.841017 7.670437 C 27.236044 7.670437 26.721714 7.947115 26.298008 8.500477 C 25.874302 9.053839 25.662453 9.758574 25.662453 10.614702 L 25.662453 11.235703 L 25.323265 11.235703 C 25.323265 11.127703 25.323265 11.024204 25.323265 10.925203 C 25.323265 10.826202 25.323265 10.722704 25.323265 10.614702 C 25.367422 9.521761 25.70738 8.625004 26.343149 7.924406 C 26.978918 7.223808 27.808245 6.873516 28.831156 6.873516 C 29.864473 6.873516 30.709412 7.223808 31.365993 7.924406 C 32.022575 8.625004 32.350861 9.526823 32.350861 10.62989 Z M 12.193252 20.745188 C 12.845896 21.095064 13.59099 21.27 14.428556 21.27 C 15.66972 21.27 16.659147 20.880472 17.39687 20.101406 C 17.720858 19.75926 17.973701 19.37429 18.155401 18.946495 L 18.155401 17.098078 C 18.155401 17.758175 18.029261 18.348866 17.776978 18.870163 C 17.524696 19.391464 17.181293 19.799694 16.746759 20.094868 C 16.312225 20.390041 15.821732 20.537624 15.275259 20.537624 C 14.430662 20.537624 13.748426 20.216511 13.228533 19.574272 C 12.70864 18.932035 12.448697 18.119865 12.448697 17.137733 C 12.448697 16.055759 12.735429 15.162168 13.3089 14.45693 C 13.882372 13.751692 14.680693 13.399078 15.703884 13.399078 L 18.155401 13.399078 L 18.155401 13.03289 L 14.655104 13.03289 C 13.75088 13.03289 12.957341 13.213451 12.274463 13.574577 C 11.591584 13.935705 11.060238 14.433231 10.680408 15.067172 C 10.300578 15.701113 10.110666 16.425886 10.110666 17.241516 C 10.110666 18.005394 10.294601 18.692833 10.662478 19.303852 C 11.030355 19.914871 11.540608 20.395309 12.193252 20.745188 Z M 18.155401 13.03289 L 18.155401 10.427813 C 18.155401 9.379589 17.926113 8.583658 17.467533 8.040001 C 17.008953 7.496342 16.436264 7.224516 15.749447 7.224516 C 15.33882 7.224516 14.947746 7.347631 14.576212 7.593866 C 14.204679 7.840103 13.906277 8.203194 13.680994 8.683149 C 13.455711 9.163103 13.343072 9.764481 13.343072 10.487297 C 13.343072 10.606829 13.345041 10.732828 13.348978 10.865297 C 13.352916 10.997766 13.358822 11.124889 13.366697 11.246672 L 11.046806 11.246672 C 11.046806 10.395605 11.251484 9.640808 11.660846 8.982258 C 12.070207 8.323708 12.633826 7.807619 13.351721 7.433977 C 14.069614 7.060333 14.868849 6.873516 15.749447 6.873516 C 16.647764 6.873516 17.449389 7.062372 18.154346 7.440094 C 18.859303 7.817814 19.416452 8.345222 19.825815 9.022335 C 20.235176 9.69945 20.439854 10.487293 20.439854 11.385891 L 20.439854 21 L 18.155401 21 L 18.155401 18.946495 C 18.387432 18.400196 18.503447 17.78406 18.503447 17.098078 L 18.155401 17.098078 L 18.155401 13.399078 L 18.696667 13.399078 L 18.720291 13.03289 L 18.155401 13.03289 Z M 4.330519 14.438999 L 4.330519 21 L 6.70441 21 L 6.70441 14.438999 L 6.380409 14.087999 L 6.484119 13.747517 L 2.833706 2.289 L 0.423956 2.289 L 4.330519 14.438999 Z M 6.484119 13.747517 L 9.974362 2.289 L 10.352363 2.289 L 6.70441 14.438999 L 6.484119 13.747517 Z"/>
</svg>
