<svg width="1042" height="180" viewBox="0 0 1042 180" fill="none" xmlns="http://www.w3.org/2000/svg">
<path d="M106.72 9.43H144.21L88.78 103.73V170.43H55.43V103.96L0 9.43H37.49L71.99 74.29L106.72 9.43Z" fill="white"/>
<path d="M161.298 133.86L165.208 107.87H242.488L246.398 133.86H161.298ZM203.388 61.64L179.238 117.07L179.928 124.43L158.768 170.43H121.738L203.388 0L285.038 170.43H247.778L227.078 125.81L227.538 117.53L203.388 61.64Z" fill="white"/>
<path d="M339.074 95.45H373.804L426.244 170.43H387.374L339.074 95.45ZM302.504 9.43H335.394V170.43H302.504V9.43ZM322.514 37.49V9.43H356.554C369.281 9.43 380.091 11.5767 388.984 15.87C397.877 20.1633 404.701 26.1433 409.454 33.81C414.207 41.4767 416.584 50.4467 416.584 60.72C416.584 70.84 414.207 79.81 409.454 87.63C404.701 95.2967 397.877 101.277 388.984 105.57C380.091 109.863 369.281 112.01 356.554 112.01H322.514V85.79H354.484C360.311 85.79 365.294 84.87 369.434 83.03C373.727 81.0367 377.024 78.2767 379.324 74.75C381.624 71.07 382.774 66.7 382.774 61.64C382.774 56.58 381.624 52.2867 379.324 48.76C377.024 45.08 373.727 42.32 369.434 40.48C365.294 38.4867 360.311 37.49 354.484 37.49H322.514Z" fill="white"/>
<path d="M509.531 114.31L553.001 9.43H591.181L509.531 179.86L427.881 9.43H465.831L509.531 114.31Z" fill="white"/>
<path d="M630.807 89.93C630.807 100.203 632.954 109.327 637.247 117.3C641.541 125.273 647.444 131.56 654.957 136.16C662.471 140.76 671.211 143.06 681.177 143.06C691.144 143.06 699.884 140.76 707.397 136.16C714.911 131.56 720.737 125.273 724.877 117.3C729.171 109.327 731.317 100.203 731.317 89.93C731.317 79.6567 729.247 70.5333 725.107 62.56C720.967 54.5867 715.141 48.3 707.627 43.7C700.114 39.1 691.297 36.8 681.177 36.8C671.211 36.8 662.471 39.1 654.957 43.7C647.444 48.3 641.541 54.5867 637.247 62.56C632.954 70.5333 630.807 79.6567 630.807 89.93ZM596.077 89.93C596.077 77.6633 598.224 66.47 602.517 56.35C606.811 46.0767 612.791 37.1833 620.457 29.67C628.124 22.1567 637.094 16.4067 647.367 12.42C657.794 8.28 669.064 6.21 681.177 6.21C693.444 6.21 704.714 8.28 714.987 12.42C725.261 16.4067 734.231 22.1567 741.897 29.67C749.717 37.1833 755.697 46.0767 759.837 56.35C764.131 66.47 766.277 77.6633 766.277 89.93C766.277 102.043 764.131 113.313 759.837 123.74C755.697 134.013 749.794 142.983 742.127 150.65C734.614 158.317 725.644 164.297 715.217 168.59C704.944 172.73 693.597 174.8 681.177 174.8C668.757 174.8 657.334 172.73 646.907 168.59C636.634 164.297 627.664 158.317 619.997 150.65C612.331 142.983 606.427 134.013 602.287 123.74C598.147 113.313 596.077 102.043 596.077 89.93Z" fill="white"/>
<path d="M791.703 9.43H824.593V141.68H888.763V170.43H791.703V9.43Z" fill="white"/>
<path d="M907.602 9.43H941.412V170.43H907.602V9.43ZM998.682 9.43H1037.78L971.082 84.87L1041.23 170.43H1001.21L931.752 85.79L998.682 9.43Z" fill="white"/>
</svg>
