<?xml version="1.0" encoding="UTF-8"?>
<!-- Generated by Pixelmator Pro 3.7.1 -->
<svg width="933" height="933" viewBox="0 0 933 933" xmlns="http://www.w3.org/2000/svg">
    <g id="ICON">
        <path id="WHATSAPP" fill="#ffffff" fill-rule="evenodd" stroke="none" d="M 263.907288 772.906616 L 280.081116 781.492798 C 337.147095 816.959229 403.931702 835.208008 470.716492 835.208008 C 677.491455 835.208008 845.494141 667.58374 845.494141 461.278564 C 845.494141 254.969482 677.491455 87.307373 470.716492 87.307373 C 263.907288 87.307373 95.904602 254.969482 95.904602 461.278564 C 95.904602 528.947632 115.3078 596.654541 150.85437 654.702759 L 160.538879 670.805908 L 122.841797 810.480835 Z M 641.948608 525.729248 C 623.616821 513.917236 598.871826 501.036133 576.239136 510.698853 C 559.020508 517.139404 548.260742 544.01593 537.467041 557.969727 C 531.008057 565.486877 524.553101 566.55957 515.943726 562.264771 C 451.313232 536.49884 401.781311 493.519043 366.234741 434.401855 C 359.779724 425.812012 360.85498 418.298584 368.388977 409.670898 C 379.148743 396.789795 393.171997 382.832275 395.322449 365.618286 C 398.551941 348.442383 391.021606 329.082886 383.449524 314.05249 C 374.844055 294.727173 364.084351 266.77771 344.715332 256.042236 C 327.462524 246.341675 303.754822 251.747314 287.615173 264.63208 C 260.677917 287.175781 246.688721 321.565796 247.767822 355.955688 C 247.767822 366.691162 248.842957 376.391724 250.993347 386.054443 C 256.373291 408.598145 267.171021 430.106934 279.005859 450.542969 C 287.615173 465.569702 298.374878 480.600098 308.093567 494.595581 C 342.526917 540.793701 385.60376 581.628052 435.173767 612.795776 C 459.918701 627.826172 486.855957 640.71106 514.86853 650.369873 C 546.110352 660.070435 573.009766 670.805908 606.401978 664.365356 C 641.948608 657.924805 676.416138 636.416016 690.401489 602.022339 C 694.706177 592.363403 696.860474 581.628052 694.706177 570.892578 C 689.326294 549.383728 660.238647 535.426086 641.948608 525.729248 Z M 0.066406 933.013794 L 66.851135 683.687012 C 29.154175 616.017822 8.675659 538.648193 8.675659 461.278564 C 8.675659 207.656738 216.525879 0.274902 470.716492 0.274902 C 724.872803 0.274902 932.723022 207.656738 932.723022 461.278564 C 932.723022 714.858521 724.872803 922.240356 470.716492 922.240356 C 394.247314 922.240356 318.853271 902.914917 250.993347 866.379517 Z"/>
    </g>
</svg>
