<?xml version="1.0" encoding="UTF-8"?>
<!-- Generated by Pixelmator Pro 3.7.1 -->
<svg width="1000" height="150" viewBox="0 0 1000 150" xmlns="http://www.w3.org/2000/svg">
    <g id="Webmastres-logo">
        <path id="Path" fill="#ffffff" stroke="none" d="M 380.162415 108.950562 C 380.162415 113.263443 378.989807 116.506683 376.644623 118.686005 C 374.299408 120.865318 371.027588 121.95784 366.834808 121.95784 L 359.724854 121.95784 L 359.724854 96.44664 L 367.584137 96.44664 C 370.158142 96.44664 372.38324 96.921402 374.265106 97.876633 C 376.146973 98.831879 377.599854 100.227554 378.623749 102.075119 C 379.647614 103.922684 380.162415 106.2164 380.162415 108.950562 Z M 376.770447 109.05352 C 376.770447 105.650124 375.929626 103.150482 374.253662 101.56604 C 372.571991 99.981598 370.198181 99.192238 367.126556 99.192238 L 362.945221 99.192238 L 362.945221 119.200798 L 366.41156 119.200798 C 373.321289 119.200798 376.776184 115.820282 376.776184 109.05352 Z"/>
        <path id="path1" fill="#ffffff" stroke="none" d="M 444.798401 121.952126 L 430.544189 121.952126 L 430.544189 96.440918 L 444.798401 96.440918 L 444.798401 99.26088 L 433.75882 99.26088 L 433.75882 107.228836 L 444.157776 107.228836 L 444.157776 110.014481 L 433.75882 110.014481 L 433.75882 119.126442 L 444.798401 119.126442 L 444.798401 121.946396 Z"/>
        <path id="path2" fill="#ffffff" stroke="none" d="M 509.617462 115.128159 C 509.617462 117.39328 508.793793 119.155045 507.15213 120.419159 C 505.510498 121.683281 503.291138 122.312477 500.505493 122.312477 C 499.0755 122.312477 497.754181 122.203796 496.541534 121.992157 C 495.328888 121.780518 494.316467 121.483078 493.504242 121.099838 L 493.504242 118.028206 C 494.362244 118.411438 495.426147 118.754639 496.701721 119.063522 C 497.977264 119.372398 499.292877 119.52684 500.648499 119.52684 C 502.553253 119.52684 503.988983 119.155045 504.955658 118.41716 C 505.922333 117.679283 506.402832 116.678284 506.402832 115.414154 C 506.402832 114.579041 506.225494 113.875473 505.865143 113.303482 C 505.510498 112.731476 504.892731 112.199524 504.023285 111.713318 C 503.15387 111.227127 501.94693 110.706604 500.39682 110.157478 C 498.228943 109.37384 496.593018 108.407158 495.483337 107.263161 C 494.373657 106.119156 493.824554 104.557602 493.824554 102.584198 C 493.824554 101.228561 494.167725 100.067398 494.859863 99.100716 C 495.551971 98.134048 496.507233 97.390442 497.73703 96.869919 C 498.96109 96.343681 500.373932 96.086288 501.969818 96.086288 C 503.376923 96.086288 504.66394 96.217842 505.830811 96.480957 C 506.997681 96.74408 508.055908 97.08728 509.011139 97.516281 L 508.010132 100.267601 C 507.129272 99.884361 506.168304 99.564041 505.132996 99.300919 C 504.097656 99.037796 503.016571 98.906235 501.901184 98.906235 C 500.305298 98.906235 499.104095 99.243713 498.29187 99.924393 C 497.479614 100.60508 497.079224 101.503128 497.079224 102.624237 C 497.079224 103.482239 497.256561 104.197235 497.616882 104.769241 C 497.971558 105.34124 498.554993 105.856049 499.367218 106.307922 C 500.179474 106.759796 501.271973 107.251717 502.656219 107.77224 C 504.154877 108.321365 505.424713 108.910522 506.460022 109.539719 C 507.495331 110.168915 508.284698 110.92968 508.81665 111.810562 C 509.35434 112.691437 509.623199 113.801125 509.623199 115.133881 Z"/>
        <path id="path3" fill="#ffffff" stroke="none" d="M 578.148804 121.952126 L 574.362122 121.952126 L 565.324524 109.768524 L 562.716248 112.056519 L 562.716248 121.952126 L 559.501587 121.952126 L 559.501587 96.440918 L 562.716248 96.440918 L 562.716248 109.019203 C 563.431213 108.206955 564.157654 107.400444 564.895569 106.588203 C 565.633423 105.775955 566.371338 104.969444 567.109192 104.157204 L 574.007507 96.440918 L 577.759827 96.440918 L 567.646851 107.554871 L 578.15448 121.952126 Z"/>
        <path id="path4" fill="#ffffff" stroke="none" d="M 634.422119 121.952126 L 631.20752 121.952126 L 631.20752 99.26088 L 623.239563 99.26088 L 623.239563 96.440918 L 642.355774 96.440918 L 642.355774 99.26088 L 634.422119 99.26088 L 634.422119 121.952126 Z"/>
        <path id="path5" fill="#ffffff" stroke="none" d="M 713.209412 109.162201 C 713.209412 111.80484 712.763245 114.110001 711.870972 116.077682 C 710.978638 118.045364 709.663025 119.572601 707.924133 120.670837 C 706.185303 121.769081 704.028809 122.312477 701.454834 122.312477 C 698.880798 122.312477 696.615662 121.763367 694.865356 120.670837 C 693.115051 119.572601 691.810913 118.039635 690.952881 116.060524 C 690.09491 114.081398 689.665894 111.770523 689.665894 109.127876 C 689.665894 106.485237 690.09491 104.220123 690.952881 102.2696 C 691.810913 100.319077 693.115051 98.79184 694.865356 97.693604 C 696.615662 96.595367 698.823608 96.051956 701.494873 96.051956 C 704.166077 96.051956 706.185303 96.595367 707.924133 97.676437 C 709.663025 98.763245 710.978638 100.28476 711.870972 102.252441 C 712.763245 104.220123 713.209412 106.519562 713.209412 109.167923 Z M 693.057861 109.162201 C 693.057861 112.376846 693.738525 114.910797 695.094177 116.75264 C 696.449829 118.600204 698.57196 119.521126 701.454834 119.521126 C 704.337708 119.521126 706.482666 118.600204 707.81543 116.75264 C 709.148254 114.905075 709.817444 112.376846 709.817444 109.162201 C 709.817444 105.947556 709.148254 103.425049 707.81543 101.606079 C 706.482666 99.781403 704.372009 98.871918 701.489136 98.871918 C 698.606262 98.871918 696.478394 99.781403 695.111328 101.606079 C 693.738525 103.430756 693.057861 105.947556 693.057861 109.162201 Z"/>
        <path id="path6" fill="#ffffff" stroke="none" d="M 770.340759 96.440918 C 773.675537 96.440918 776.106567 97.098717 777.628052 98.4086 C 779.149597 99.718475 779.916077 101.56604 779.916077 103.945557 C 779.916077 105.352676 779.60144 106.668282 778.966553 107.892365 C 778.337341 109.122162 777.273438 110.111717 775.786255 110.878204 C 774.299011 111.638954 772.279846 112.022202 769.72876 112.022202 L 766.80011 112.022202 L 766.80011 121.95784 L 763.585449 121.95784 L 763.585449 96.44664 L 770.340759 96.44664 Z M 770.060486 99.192238 L 766.811523 99.192238 L 766.811523 109.270874 L 769.385559 109.270874 C 771.816528 109.270874 773.624023 108.876205 774.819519 108.09256 C 776.009338 107.308922 776.604187 105.970444 776.604187 104.088562 C 776.604187 102.446915 776.077942 101.217125 775.031189 100.410599 C 773.984436 99.598358 772.325623 99.197952 770.066223 99.197952 Z"/>
        <path id="path7" fill="#ffffff" stroke="none" d="M 411.605255 39.767159 L 398.706665 88.227005 L 392.529053 88.227005 L 383.096771 56.463844 C 382.73642 55.153954 382.370331 53.838364 382.009979 52.528481 C 381.649628 51.218605 381.352173 50.051727 381.129089 49.033569 C 380.900299 48.015396 380.74588 47.3004 380.654358 46.894272 C 380.608582 47.483437 380.368347 48.736115 379.939331 50.663757 C 379.510345 52.585678 378.978394 54.587685 378.343445 56.669762 L 369.180023 88.232712 L 363.002411 88.232712 L 350.172455 39.772888 L 356.550262 39.772888 L 364.083496 69.368156 C 364.626892 71.450241 365.09024 73.463684 365.47345 75.408478 C 365.85672 77.353287 366.165588 79.1894 366.388672 80.905396 C 366.611725 79.137917 366.954926 77.216003 367.40683 75.133919 C 367.858704 73.051842 368.379242 71.015526 368.968384 69.024956 L 377.519775 39.772888 L 383.834656 39.772888 L 392.723541 69.230888 C 393.358459 71.312958 393.901855 73.383598 394.353729 75.442802 C 394.805634 77.501999 395.143097 79.320953 395.371887 80.905396 C 395.594971 79.229439 395.915314 77.410477 396.321411 75.442802 C 396.727539 73.475113 397.202301 71.427361 397.745697 69.299522 L 405.210297 39.772888 L 411.588104 39.772888 Z"/>
        <path id="path8" fill="#ffffff" stroke="none" d="M 445.810852 88.232712 L 418.726654 88.232712 L 418.726654 39.767159 L 445.810852 39.767159 L 445.810852 45.126793 L 424.835632 45.126793 L 424.835632 60.261917 L 444.586792 60.261917 L 444.586792 65.55864 L 424.835632 65.55864 L 424.835632 82.867363 L 445.810852 82.867363 L 445.810852 88.227005 Z"/>
        <path id="path9" fill="#ffffff" stroke="none" d="M 469.977875 39.767159 C 476.041046 39.767159 480.622772 40.659477 483.723022 42.449844 C 486.823242 44.240204 488.373383 47.346161 488.373383 51.784882 C 488.373383 54.63343 487.584015 57.001526 485.999573 58.877678 C 484.415131 60.753838 482.132874 61.966476 479.147034 62.509888 L 479.147034 62.847366 C 481.18335 63.161957 483.025177 63.751114 484.678253 64.614838 C 486.331329 65.472839 487.629791 66.696922 488.579285 68.281364 C 489.528809 69.865799 490.003571 71.925003 490.003571 74.458961 C 490.003571 78.846207 488.499237 82.243874 485.490509 84.640556 C 482.481781 87.037239 478.374817 88.238441 473.169617 88.238441 L 456.135468 88.238441 L 456.135468 39.767159 L 469.983582 39.767159 Z M 471.196228 60.3992 C 475.360382 60.3992 478.208923 59.729958 479.74762 58.397202 C 481.286285 57.06443 482.052765 55.08532 482.052765 52.459839 C 482.052765 49.834366 481.114716 47.878113 479.238556 46.722679 C 477.362396 45.567238 474.359375 44.989525 470.246704 44.989525 L 462.238708 44.989525 L 462.238708 60.3992 L 471.196228 60.3992 Z M 462.238708 65.489998 L 462.238708 83.067558 L 472.014191 83.067558 C 476.309906 83.067558 479.301453 82.232445 480.97171 80.55648 C 482.647675 78.880524 483.482788 76.689758 483.482788 73.972763 C 483.482788 71.438797 482.613342 69.391045 480.868744 67.829475 C 479.124146 66.267921 476.018188 65.489998 471.533722 65.489998 L 462.232971 65.489998 Z"/>
        <path id="path10" fill="#ffffff" stroke="none" d="M 521.286255 88.232712 L 505.338898 45.744568 L 505.070038 45.744568 C 505.207336 47.145958 505.31604 49.039276 505.407562 51.413078 C 505.499054 53.786888 505.54483 56.263634 505.54483 58.843361 L 505.54483 88.232712 L 499.910614 88.232712 L 499.910614 39.767159 L 508.936768 39.767159 L 523.871704 79.475395 L 524.140564 79.475395 L 539.344299 39.767159 L 548.301819 39.767159 L 548.301819 88.227005 L 542.261475 88.227005 L 542.261475 58.431519 C 542.261475 56.080605 542.318665 53.746841 542.433105 51.441681 C 542.547485 49.13652 542.644714 47.254639 542.736267 45.80748 L 542.467407 45.80748 L 526.314148 88.227005 L 521.291992 88.227005 Z"/>
        <path id="path11" fill="#ffffff" stroke="none" d="M 591.539307 88.232712 L 585.704895 73.234886 L 566.497131 73.234886 L 560.725647 88.232712 L 554.548035 88.232712 L 573.486938 39.566956 L 578.983887 39.566956 L 597.854187 88.232712 L 591.539307 88.232712 Z M 578.434753 53.140526 C 578.297485 52.780159 578.074402 52.12236 577.754089 51.172844 C 577.439514 50.22332 577.130615 49.239479 576.838928 48.221321 C 576.541443 47.203156 576.306946 46.42524 576.123901 45.881844 C 575.809326 47.283241 575.443237 48.656044 575.037109 49.9888 C 574.630981 51.321564 574.287781 52.374046 574.018982 53.14624 L 568.522034 67.806602 L 583.863037 67.806602 L 578.434753 53.14624 Z"/>
        <path id="path12" fill="#ffffff" stroke="none" d="M 631.647949 75.26548 C 631.647949 79.566917 630.086365 82.913124 626.963257 85.309799 C 623.840149 87.706482 619.630249 88.907684 614.339233 88.907684 C 611.622253 88.907684 609.111145 88.701759 606.805969 88.295639 C 604.500793 87.889526 602.573181 87.323242 601.034485 86.596802 L 601.034485 80.762398 C 602.664673 81.488838 604.689575 82.140923 607.109131 82.73008 C 609.528687 83.319237 612.02832 83.610954 614.608032 83.610954 C 618.228821 83.610954 620.951538 82.907402 622.787659 81.505997 C 624.618042 80.104599 625.53894 78.205559 625.53894 75.803162 C 625.53894 74.218719 625.201477 72.885956 624.520813 71.799156 C 623.840149 70.712364 622.678955 69.705635 621.02594 68.778999 C 619.372803 67.852364 617.079102 66.868523 614.139038 65.827477 C 610.02063 64.334564 606.908936 62.504158 604.803955 60.330566 C 602.699036 58.15696 601.646545 55.194 601.646545 51.441681 C 601.646545 48.861954 602.304321 46.654045 603.614258 44.823639 C 604.924072 42.99324 606.748779 41.574684 609.076843 40.579399 C 611.404846 39.584114 614.087524 39.086479 617.119141 39.086479 C 619.790344 39.086479 622.232849 39.338158 624.452209 39.8358 C 626.67157 40.333443 628.684937 40.991241 630.492493 41.803474 L 628.593445 47.031563 C 626.91748 46.310844 625.098572 45.698799 623.130859 45.201157 C 621.163208 44.703522 619.115417 44.451843 616.98761 44.451843 C 613.955994 44.451843 611.667969 45.098206 610.13501 46.385201 C 608.596313 47.672203 607.829895 49.382477 607.829895 51.510315 C 607.829895 53.140526 608.167297 54.496162 608.848022 55.582954 C 609.528687 56.669762 610.632629 57.642159 612.171326 58.50016 C 613.710022 59.358162 615.792114 60.29052 618.417603 61.285797 C 621.266113 62.326843 623.679993 63.447952 625.647644 64.643433 C 627.615356 65.844635 629.108276 67.280365 630.126404 68.9506 C 631.144592 70.626564 631.653625 72.731522 631.653625 75.26548 Z"/>
        <path id="path13" fill="#ffffff" stroke="none" d="M 656.421265 88.232712 L 650.312317 88.232712 L 650.312317 45.132523 L 635.177185 45.132523 L 635.177185 39.772888 L 671.487732 39.772888 L 671.487732 45.132523 L 656.421265 45.132523 L 656.421265 88.232712 Z"/>
        <path id="path14" fill="#ffffff" stroke="none" d="M 705.561768 88.232712 L 678.4776 88.232712 L 678.4776 39.767159 L 705.561768 39.767159 L 705.561768 45.126793 L 684.586548 45.126793 L 684.586548 60.261917 L 704.337708 60.261917 L 704.337708 65.55864 L 684.586548 65.55864 L 684.586548 82.867363 L 705.561768 82.867363 L 705.561768 88.227005 Z"/>
        <path id="path15" fill="#ffffff" stroke="none" d="M 729.254028 39.767159 C 735.271484 39.767159 739.715881 40.911156 742.593079 43.193436 C 745.464478 45.48143 746.900208 48.930603 746.900208 53.546638 C 746.900208 56.126366 746.425476 58.277077 745.475952 59.99308 C 744.526428 61.714798 743.313782 63.081886 741.84375 64.100044 C 740.373718 65.118202 738.823608 65.924728 737.193359 66.508156 L 750.498108 88.227005 L 743.370972 88.227005 L 731.627808 68.207001 L 721.989624 68.207001 L 721.989624 88.227005 L 715.880615 88.227005 L 715.880615 39.767159 L 729.254028 39.767159 Z M 728.910828 45.063889 L 721.989624 45.063889 L 721.989624 63.047569 L 729.254028 63.047569 C 733.189392 63.047569 736.060852 62.269638 737.874023 60.708076 C 739.68158 59.146523 740.591064 56.852798 740.591064 53.821205 C 740.591064 50.789604 739.641541 48.404366 737.742493 47.065887 C 735.843445 45.733116 732.897644 45.063889 728.916565 45.063889 Z"/>
        <path id="path16" fill="#ffffff" stroke="none" d="M 785.24707 75.26548 C 785.24707 79.566917 783.685547 82.913124 780.562439 85.309799 C 777.439331 87.706482 773.22937 88.907684 767.938354 88.907684 C 765.221375 88.907684 762.710327 88.701759 760.405151 88.295639 C 758.099976 87.889526 756.172302 87.323242 754.633667 86.596802 L 754.633667 80.762398 C 756.263855 81.488838 758.288757 82.140923 760.708313 82.73008 C 763.127869 83.319237 765.627502 83.610954 768.207214 83.610954 C 771.827942 83.610954 774.550659 82.907402 776.386841 81.505997 C 778.217224 80.104599 779.138123 78.205559 779.138123 75.803162 C 779.138123 74.218719 778.800659 72.885956 778.119934 71.799156 C 777.439331 70.712364 776.278137 69.705635 774.625061 68.778999 C 772.971985 67.852364 770.678284 66.868523 767.738159 65.827477 C 763.619751 64.334564 760.508118 62.504158 758.403137 60.330566 C 756.298157 58.15696 755.245667 55.194 755.245667 51.441681 C 755.245667 48.861954 755.903503 46.654045 757.213379 44.823639 C 758.523254 42.99324 760.347961 41.574684 762.675964 40.579399 C 765.004028 39.584114 767.686707 39.086479 770.718323 39.086479 C 773.389526 39.086479 775.83197 39.338158 778.051331 39.8358 C 780.270691 40.333443 782.284119 40.991241 784.091675 41.803474 L 782.192627 47.031563 C 780.516663 46.310844 778.697693 45.698799 776.72998 45.201157 C 774.762329 44.703522 772.7146 44.451843 770.586731 44.451843 C 767.555115 44.451843 765.267151 45.098206 763.734192 46.385201 C 762.195496 47.672203 761.429016 49.382477 761.429016 51.510315 C 761.429016 53.140526 761.766479 54.496162 762.447205 55.582954 C 763.127869 56.669762 764.231812 57.642159 765.770508 58.50016 C 767.309204 59.358162 769.391296 60.29052 772.016724 61.285797 C 774.865295 62.326843 777.279114 63.447952 779.246826 64.643433 C 781.214478 65.844635 782.707397 67.280365 783.725586 68.9506 C 784.743713 70.626564 785.252808 72.731522 785.252808 75.26548 Z"/>
        <path id="path17" fill="#ffffff" stroke="none" d="M 332.314606 115.711601 L 275.663757 147 L 275.663757 71.816322 L 332.314606 40.527924 L 332.314606 115.711601 Z"/>
        <path id="path18" fill="#ffffff" stroke="none" d="M 214.757187 115.711601 L 271.408051 147 L 271.408051 71.816322 L 214.757187 40.527924 L 214.757187 115.711601 Z"/>
        <path id="path19" fill="#ffffff" stroke="none" d="M 273.535889 4 L 216.816376 36.478157 L 271.270782 66.54248 L 273.535889 67.840919 L 275.801025 66.54248 L 330.255432 36.478157 L 273.535889 4 Z"/>
    </g>
</svg>
