<?xml version="1.0" encoding="UTF-8"?>
<!-- Generated by Pixelmator Pro 3.7.1 -->
<svg width="572" height="143" viewBox="0 0 572 143" xmlns="http://www.w3.org/2000/svg">
    <g id="Webmastres-logo">
        <path id="Path" fill="#ffffff" stroke="none" d="M 166.162415 104.950562 C 166.162415 109.263443 164.989822 112.506683 162.644623 114.686005 C 160.299408 116.865318 157.027573 117.95784 152.834824 117.95784 L 145.724854 117.95784 L 145.724854 92.44664 L 153.584137 92.44664 C 156.158142 92.44664 158.383224 92.921402 160.265091 93.876633 C 162.146988 94.831879 163.599869 96.227554 164.623734 98.075119 C 165.647614 99.922684 166.162415 102.2164 166.162415 104.950562 Z M 162.770462 105.05352 C 162.770462 101.650124 161.929611 99.150482 160.253662 97.56604 C 158.571976 95.981598 156.198181 95.192238 153.126541 95.192238 L 148.945236 95.192238 L 148.945236 115.200798 L 152.411545 115.200798 C 159.321304 115.200798 162.776184 111.820282 162.776184 105.05352 Z"/>
        <path id="path1" fill="#ffffff" stroke="none" d="M 230.798416 117.952126 L 216.544189 117.952126 L 216.544189 92.440918 L 230.798416 92.440918 L 230.798416 95.26088 L 219.75882 95.26088 L 219.75882 103.228836 L 230.157776 103.228836 L 230.157776 106.014481 L 219.75882 106.014481 L 219.75882 115.126442 L 230.798416 115.126442 L 230.798416 117.946396 Z"/>
        <path id="path2" fill="#ffffff" stroke="none" d="M 295.617462 111.128159 C 295.617462 113.39328 294.793793 115.155045 293.15213 116.419159 C 291.510498 117.683281 289.291138 118.312477 286.505493 118.312477 C 285.0755 118.312477 283.754181 118.203796 282.541534 117.992157 C 281.328888 117.780518 280.316467 117.483078 279.504242 117.099838 L 279.504242 114.028206 C 280.362244 114.411438 281.426147 114.754639 282.701721 115.063522 C 283.977264 115.372398 285.292877 115.52684 286.648499 115.52684 C 288.553253 115.52684 289.988983 115.155045 290.955658 114.41716 C 291.922333 113.679283 292.402832 112.678284 292.402832 111.414162 C 292.402832 110.579041 292.225494 109.875473 291.865143 109.303482 C 291.510498 108.731476 290.892731 108.199524 290.023285 107.713318 C 289.15387 107.227127 287.94693 106.706604 286.39682 106.157478 C 284.228943 105.37384 282.593018 104.407158 281.483337 103.263161 C 280.373657 102.119156 279.824554 100.557602 279.824554 98.584198 C 279.824554 97.228561 280.167725 96.067398 280.859863 95.100716 C 281.551971 94.134048 282.507233 93.390442 283.73703 92.869919 C 284.96109 92.343681 286.373932 92.086288 287.969818 92.086288 C 289.376923 92.086288 290.66394 92.217842 291.830811 92.480957 C 292.997681 92.74408 294.055908 93.08728 295.011139 93.516281 L 294.010132 96.267601 C 293.129272 95.884361 292.168304 95.564041 291.132996 95.300919 C 290.097656 95.037796 289.016571 94.906235 287.901184 94.906235 C 286.305298 94.906235 285.104095 95.243713 284.29187 95.924393 C 283.479614 96.60508 283.079224 97.503128 283.079224 98.624237 C 283.079224 99.482239 283.256561 100.197235 283.616882 100.769241 C 283.971558 101.34124 284.554993 101.856049 285.367218 102.307922 C 286.179474 102.759796 287.271973 103.251717 288.656219 103.77224 C 290.154877 104.321365 291.424713 104.910522 292.460022 105.539719 C 293.495331 106.168915 294.284698 106.92968 294.81665 107.810562 C 295.35434 108.691437 295.623199 109.801125 295.623199 111.133881 Z"/>
        <path id="path3" fill="#ffffff" stroke="none" d="M 364.148773 117.952126 L 360.362152 117.952126 L 351.324554 105.768524 L 348.716217 108.056519 L 348.716217 117.952126 L 345.501587 117.952126 L 345.501587 92.440918 L 348.716217 92.440918 L 348.716217 105.019203 C 349.431244 104.206955 350.157654 103.400444 350.895538 102.588203 C 351.633423 101.775955 352.371307 100.969444 353.109192 100.157204 L 360.007507 92.440918 L 363.759827 92.440918 L 353.646881 103.554871 L 364.15451 117.952126 Z"/>
        <path id="path4" fill="#ffffff" stroke="none" d="M 420.42215 117.952126 L 417.207489 117.952126 L 417.207489 95.26088 L 409.239532 95.26088 L 409.239532 92.440918 L 428.355774 92.440918 L 428.355774 95.26088 L 420.42215 95.26088 L 420.42215 117.952126 Z"/>
        <path id="path5" fill="#ffffff" stroke="none" d="M 499.209412 105.162201 C 499.209412 107.80484 498.763275 110.110001 497.870941 112.077682 C 496.978638 114.045364 495.662994 115.572601 493.924133 116.670837 C 492.185272 117.769081 490.028809 118.312477 487.454834 118.312477 C 484.880829 118.312477 482.615692 117.763367 480.865356 116.670837 C 479.115051 115.572601 477.810913 114.039635 476.952911 112.060524 C 476.09491 110.081398 475.665924 107.770523 475.665924 105.127876 C 475.665924 102.485237 476.09491 100.220123 476.952911 98.2696 C 477.810913 96.319077 479.115051 94.79184 480.865356 93.693604 C 482.615692 92.595367 484.823639 92.051956 487.494873 92.051956 C 490.166107 92.051956 492.185272 92.595367 493.924133 93.676437 C 495.662994 94.763245 496.978638 96.28476 497.870941 98.252441 C 498.763275 100.220123 499.209412 102.519562 499.209412 105.167923 Z M 479.057861 105.162201 C 479.057861 108.376846 479.738556 110.910797 481.094177 112.75264 C 482.449829 114.600204 484.57196 115.521126 487.454834 115.521126 C 490.337677 115.521126 492.482697 114.600204 493.81546 112.75264 C 495.148224 110.905075 495.817474 108.376846 495.817474 105.162201 C 495.817474 101.947556 495.148224 99.425049 493.81546 97.606079 C 492.482697 95.781403 490.372009 94.871918 487.489136 94.871918 C 484.606262 94.871918 482.478424 95.781403 481.111328 97.606079 C 479.738556 99.430756 479.057861 101.947556 479.057861 105.162201 Z"/>
        <path id="path6" fill="#ffffff" stroke="none" d="M 556.340759 92.440918 C 559.675537 92.440918 562.106567 93.098717 563.628052 94.4086 C 565.149597 95.718475 565.916077 97.56604 565.916077 99.945557 C 565.916077 101.352676 565.60144 102.668282 564.966553 103.892365 C 564.337341 105.122162 563.273438 106.111717 561.786255 106.878204 C 560.299011 107.638954 558.279846 108.022202 555.72876 108.022202 L 552.80011 108.022202 L 552.80011 117.95784 L 549.585449 117.95784 L 549.585449 92.44664 L 556.340759 92.44664 Z M 556.060486 95.192238 L 552.811523 95.192238 L 552.811523 105.270874 L 555.385559 105.270874 C 557.816528 105.270874 559.624023 104.876205 560.819519 104.09256 C 562.009338 103.308922 562.604187 101.970444 562.604187 100.088562 C 562.604187 98.446915 562.077942 97.217125 561.031189 96.410599 C 559.984436 95.598358 558.325623 95.197952 556.066223 95.197952 Z"/>
        <path id="path7" fill="#ffffff" stroke="none" d="M 197.605255 35.767159 L 184.706665 84.227005 L 178.529053 84.227005 L 169.096771 52.463844 C 168.73642 51.153954 168.370346 49.838364 168.009979 48.528481 C 167.649612 47.218605 167.352188 46.051727 167.129089 45.033569 C 166.900299 44.015396 166.745865 43.3004 166.654343 42.894272 C 166.608582 43.483437 166.368347 44.736115 165.939346 46.663757 C 165.510345 48.585678 164.978394 50.587685 164.34346 52.669762 L 155.180023 84.232712 L 149.002411 84.232712 L 136.172455 35.772888 L 142.550262 35.772888 L 150.083496 65.368156 C 150.626892 67.450241 151.090225 69.463684 151.473465 71.408478 C 151.856705 73.353287 152.165573 75.1894 152.388657 76.905396 C 152.61174 75.137917 152.954941 73.216003 153.406815 71.133919 C 153.858704 69.051842 154.379227 67.015526 154.968384 65.024956 L 163.519775 35.772888 L 169.834656 35.772888 L 178.723541 65.230888 C 179.358459 67.312958 179.901871 69.383598 180.353729 71.442802 C 180.805618 73.501999 181.143097 75.320953 181.371887 76.905396 C 181.594986 75.229439 181.915298 73.410477 182.321411 71.442802 C 182.727554 69.475113 183.202301 67.427361 183.745712 65.299522 L 191.210297 35.772888 L 197.588089 35.772888 Z"/>
        <path id="path8" fill="#ffffff" stroke="none" d="M 231.810867 84.232712 L 204.726669 84.232712 L 204.726669 35.767159 L 231.810867 35.767159 L 231.810867 41.126793 L 210.835617 41.126793 L 210.835617 56.261917 L 230.586777 56.261917 L 230.586777 61.55864 L 210.835617 61.55864 L 210.835617 78.867363 L 231.810867 78.867363 L 231.810867 84.227005 Z"/>
        <path id="path9" fill="#ffffff" stroke="none" d="M 255.977859 35.767159 C 262.041046 35.767159 266.622772 36.659477 269.723022 38.449844 C 272.823242 40.240204 274.373383 43.346161 274.373383 47.784882 C 274.373383 50.63343 273.584015 53.001526 271.999573 54.877678 C 270.415131 56.753838 268.132874 57.966476 265.147034 58.509888 L 265.147034 58.847366 C 267.18335 59.161957 269.025177 59.751114 270.678253 60.614838 C 272.331329 61.472839 273.629791 62.696922 274.579285 64.281364 C 275.528809 65.865799 276.003571 67.925003 276.003571 70.458961 C 276.003571 74.846207 274.499237 78.243874 271.490509 80.640556 C 268.481781 83.037239 264.374817 84.238441 259.169617 84.238441 L 242.135452 84.238441 L 242.135452 35.767159 L 255.983582 35.767159 Z M 257.196228 56.3992 C 261.360382 56.3992 264.208923 55.729958 265.74762 54.397202 C 267.286285 53.06443 268.052765 51.08532 268.052765 48.459839 C 268.052765 45.834366 267.114716 43.878113 265.238556 42.722679 C 263.362396 41.567238 260.359375 40.989525 256.246704 40.989525 L 248.238708 40.989525 L 248.238708 56.3992 L 257.196228 56.3992 Z M 248.238708 61.489998 L 248.238708 79.067558 L 258.014191 79.067558 C 262.309906 79.067558 265.301453 78.232445 266.97171 76.55648 C 268.647675 74.880524 269.482788 72.689758 269.482788 69.972763 C 269.482788 67.438797 268.613342 65.391045 266.868744 63.829475 C 265.124146 62.267921 262.018188 61.489998 257.533722 61.489998 L 248.232986 61.489998 Z"/>
        <path id="path10" fill="#ffffff" stroke="none" d="M 307.286285 84.232712 L 291.338898 41.744568 L 291.070038 41.744568 C 291.207336 43.145958 291.31604 45.039276 291.407562 47.413078 C 291.499054 49.786888 291.54483 52.263634 291.54483 54.843361 L 291.54483 84.232712 L 285.910614 84.232712 L 285.910614 35.767159 L 294.936768 35.767159 L 309.871704 75.475395 L 310.140533 75.475395 L 325.34433 35.767159 L 334.301819 35.767159 L 334.301819 84.227005 L 328.261505 84.227005 L 328.261505 54.431519 C 328.261505 52.080605 328.318695 49.746841 328.433105 47.441681 C 328.547516 45.13652 328.644745 43.254639 328.736267 41.80748 L 328.467407 41.80748 L 312.314148 84.227005 L 307.291962 84.227005 Z"/>
        <path id="path11" fill="#ffffff" stroke="none" d="M 377.539307 84.232712 L 371.704926 69.234886 L 352.497131 69.234886 L 346.725647 84.232712 L 340.548065 84.232712 L 359.486969 35.566956 L 364.983917 35.566956 L 383.854187 84.232712 L 377.539307 84.232712 Z M 364.434784 49.140526 C 364.297516 48.780159 364.074402 48.12236 363.754089 47.172844 C 363.439514 46.22332 363.130646 45.239479 362.838898 44.221321 C 362.541473 43.203156 362.306946 42.42524 362.123901 41.881844 C 361.809326 43.283241 361.443237 44.656044 361.037109 45.9888 C 360.630951 47.321564 360.287781 48.374046 360.018951 49.14624 L 354.522003 63.806602 L 369.863037 63.806602 L 364.434784 49.14624 Z"/>
        <path id="path12" fill="#ffffff" stroke="none" d="M 417.647949 71.26548 C 417.647949 75.566917 416.086365 78.913124 412.963287 81.309799 C 409.840149 83.706482 405.630219 84.907684 400.339233 84.907684 C 397.622223 84.907684 395.111145 84.701759 392.805969 84.295639 C 390.500824 83.889526 388.573181 83.323242 387.034515 82.596802 L 387.034515 76.762398 C 388.664703 77.488838 390.689606 78.140923 393.109131 78.73008 C 395.528687 79.319244 398.02832 79.610954 400.608063 79.610954 C 404.228821 79.610954 406.951538 78.907402 408.787659 77.505997 C 410.618042 76.104599 411.538971 74.205559 411.538971 71.803162 C 411.538971 70.218719 411.201508 68.885956 410.520813 67.799156 C 409.840149 66.712364 408.678955 65.705635 407.025909 64.778999 C 405.372833 63.852364 403.079102 62.868523 400.139008 61.827477 C 396.02063 60.334564 392.908966 58.504158 390.803955 56.330566 C 388.699005 54.15696 387.646545 51.194 387.646545 47.441681 C 387.646545 44.861954 388.304321 42.654045 389.614227 40.823639 C 390.924103 38.99324 392.748779 37.574684 395.076813 36.579399 C 397.404877 35.584114 400.087555 35.086479 403.119141 35.086479 C 405.790375 35.086479 408.232819 35.338158 410.452179 35.8358 C 412.671539 36.333443 414.684967 36.991241 416.492493 37.803474 L 414.593445 43.031563 C 412.917511 42.310844 411.098541 41.698799 409.130859 41.201157 C 407.163177 40.703522 405.115417 40.451843 402.987579 40.451843 C 399.955963 40.451843 397.667969 41.098206 396.13501 42.385201 C 394.596313 43.672203 393.829865 45.382477 393.829865 47.510315 C 393.829865 49.140526 394.167328 50.496162 394.848022 51.582954 C 395.528687 52.669762 396.63266 53.642159 398.171326 54.50016 C 399.710022 55.358162 401.792084 56.29052 404.417603 57.285797 C 407.266144 58.326843 409.679962 59.447952 411.647644 60.643433 C 413.615326 61.844635 415.108276 63.280365 416.126404 64.9506 C 417.144592 66.626564 417.653656 68.731522 417.653656 71.26548 Z"/>
        <path id="path13" fill="#ffffff" stroke="none" d="M 442.421265 84.232712 L 436.312317 84.232712 L 436.312317 41.132523 L 421.177185 41.132523 L 421.177185 35.772888 L 457.487732 35.772888 L 457.487732 41.132523 L 442.421265 41.132523 L 442.421265 84.232712 Z"/>
        <path id="path14" fill="#ffffff" stroke="none" d="M 491.561768 84.232712 L 464.4776 84.232712 L 464.4776 35.767159 L 491.561768 35.767159 L 491.561768 41.126793 L 470.586548 41.126793 L 470.586548 56.261917 L 490.337677 56.261917 L 490.337677 61.55864 L 470.586548 61.55864 L 470.586548 78.867363 L 491.561768 78.867363 L 491.561768 84.227005 Z"/>
        <path id="path15" fill="#ffffff" stroke="none" d="M 515.254028 35.767159 C 521.271484 35.767159 525.715881 36.911156 528.593079 39.193436 C 531.464478 41.48143 532.900208 44.930603 532.900208 49.546638 C 532.900208 52.126366 532.425476 54.277077 531.475952 55.99308 C 530.526428 57.714798 529.313782 59.081886 527.84375 60.100044 C 526.373718 61.118202 524.823608 61.924728 523.193359 62.508156 L 536.498108 84.227005 L 529.370972 84.227005 L 517.627808 64.207001 L 507.989624 64.207001 L 507.989624 84.227005 L 501.880646 84.227005 L 501.880646 35.767159 L 515.254028 35.767159 Z M 514.910828 41.063889 L 507.989624 41.063889 L 507.989624 59.047569 L 515.254028 59.047569 C 519.189392 59.047569 522.060852 58.269638 523.874023 56.708076 C 525.68158 55.146523 526.591064 52.852798 526.591064 49.821205 C 526.591064 46.789604 525.641541 44.404366 523.742493 43.065887 C 521.843445 41.733116 518.897644 41.063889 514.916565 41.063889 Z"/>
        <path id="path16" fill="#ffffff" stroke="none" d="M 571.24707 71.26548 C 571.24707 75.566917 569.685547 78.913124 566.562439 81.309799 C 563.439331 83.706482 559.22937 84.907684 553.938354 84.907684 C 551.221375 84.907684 548.710327 84.701759 546.405151 84.295639 C 544.099976 83.889526 542.172302 83.323242 540.633667 82.596802 L 540.633667 76.762398 C 542.263855 77.488838 544.288757 78.140923 546.708313 78.73008 C 549.127869 79.319244 551.627502 79.610954 554.207214 79.610954 C 557.827942 79.610954 560.550659 78.907402 562.386841 77.505997 C 564.217224 76.104599 565.138123 74.205559 565.138123 71.803162 C 565.138123 70.218719 564.800659 68.885956 564.119934 67.799156 C 563.439331 66.712364 562.278137 65.705635 560.625061 64.778999 C 558.971985 63.852364 556.678284 62.868523 553.738159 61.827477 C 549.619751 60.334564 546.508118 58.504158 544.403137 56.330566 C 542.298157 54.15696 541.245667 51.194 541.245667 47.441681 C 541.245667 44.861954 541.903503 42.654045 543.213379 40.823639 C 544.523254 38.99324 546.347961 37.574684 548.675964 36.579399 C 551.004028 35.584114 553.686707 35.086479 556.718323 35.086479 C 559.389526 35.086479 561.83197 35.338158 564.051331 35.8358 C 566.270691 36.333443 568.284119 36.991241 570.091675 37.803474 L 568.192627 43.031563 C 566.516663 42.310844 564.697693 41.698799 562.72998 41.201157 C 560.762329 40.703522 558.7146 40.451843 556.586731 40.451843 C 553.555115 40.451843 551.267151 41.098206 549.734192 42.385201 C 548.195496 43.672203 547.429016 45.382477 547.429016 47.510315 C 547.429016 49.140526 547.766479 50.496162 548.447205 51.582954 C 549.127869 52.669762 550.231812 53.642159 551.770508 54.50016 C 553.309204 55.358162 555.391296 56.29052 558.016724 57.285797 C 560.865295 58.326843 563.279114 59.447952 565.246826 60.643433 C 567.214478 61.844635 568.707397 63.280365 569.725586 64.9506 C 570.743713 66.626564 571.252808 68.731522 571.252808 71.26548 Z"/>
        <path id="path17" fill="#ffffff" stroke="none" d="M 118.314621 111.711601 L 61.663742 143 L 61.663742 67.816322 L 118.314621 36.527924 L 118.314621 111.711601 Z"/>
        <path id="path18" fill="#ffffff" stroke="none" d="M 0.757181 111.711601 L 57.408062 143 L 57.408062 67.816322 L 0.757181 36.527924 L 0.757181 111.711601 Z"/>
        <path id="path19" fill="#ffffff" stroke="none" d="M 59.5359 0 L 2.816381 32.478157 L 57.270782 62.54248 L 59.5359 63.840919 L 61.801022 62.54248 L 116.255424 32.478157 L 59.5359 0 Z"/>
    </g>
</svg>
