<?xml version="1.0" encoding="UTF-8"?>
<!-- Generated by Pixelmator Pro 3.7.1 -->
<svg width="838" height="210" viewBox="0 0 838 210" xmlns="http://www.w3.org/2000/svg">
    <g id="Webmastres-logo">
        <path id="Path" fill="#000000" stroke="none" d="M 243.01239 154.123199 C 243.01239 160.456802 241.290405 165.219604 237.84639 168.419998 C 234.40239 171.620392 229.597595 173.224792 223.440399 173.224792 L 212.999191 173.224792 L 212.999191 135.760803 L 224.540802 135.760803 C 228.320801 135.760803 231.588409 136.458008 234.35199 137.860794 C 237.115601 139.263596 239.249207 141.313202 240.752792 144.026398 C 242.256393 146.739594 243.01239 150.108002 243.01239 154.123199 Z M 238.031204 154.274399 C 238.031204 149.276398 236.796402 145.605591 234.335205 143.278809 C 231.865601 140.951996 228.379608 139.792801 223.868805 139.792801 L 217.728409 139.792801 L 217.728409 169.175995 L 222.818817 169.175995 C 232.966003 169.175995 238.039612 164.211609 238.039612 154.274399 Z"/>
        <path id="path1" fill="#000000" stroke="none" d="M 337.932404 173.2164 L 316.999603 173.2164 L 316.999603 135.752411 L 337.932404 135.752411 L 337.932404 139.893585 L 321.720398 139.893585 L 321.720398 151.594803 L 336.991608 151.594803 L 336.991608 155.685593 L 321.720398 155.685593 L 321.720398 169.066803 L 337.932404 169.066803 L 337.932404 173.207993 Z"/>
        <path id="path2" fill="#000000" stroke="none" d="M 433.121185 163.19519 C 433.121185 166.521606 431.911591 169.10881 429.500793 170.965195 C 427.089996 172.821609 423.830811 173.745605 419.73999 173.745605 C 417.640015 173.745605 415.699615 173.585999 413.918823 173.275208 C 412.138 172.964401 410.651184 172.527603 409.458405 171.964798 L 409.458405 167.45401 C 410.718414 168.0168 412.280792 168.520798 414.154022 168.974396 C 416.027191 169.427994 417.959198 169.6548 419.950012 169.6548 C 422.747192 169.6548 424.855591 169.10881 426.275208 168.025208 C 427.694794 166.941605 428.400391 165.471603 428.400391 163.615204 C 428.400391 162.388809 428.140015 161.355591 427.610809 160.515594 C 427.089996 159.675598 426.1828 158.894409 424.906006 158.180389 C 423.629211 157.4664 421.856781 156.701996 419.580414 155.895599 C 416.39679 154.744797 413.994415 153.325195 412.364807 151.645203 C 410.735199 149.965195 409.928802 147.671997 409.928802 144.774002 C 409.928802 142.783203 410.4328 141.078003 411.449219 139.658386 C 412.465607 138.2388 413.868408 137.146805 415.674408 136.382401 C 417.471985 135.609604 419.546783 135.231598 421.890411 135.231598 C 423.956787 135.231598 425.846802 135.424805 427.560394 135.811188 C 429.273987 136.197601 430.828003 136.701599 432.230804 137.331604 L 430.760803 141.372009 C 429.467224 140.809204 428.056 140.338806 426.535614 139.952393 C 425.015198 139.565994 423.427582 139.372803 421.789612 139.372803 C 419.446014 139.372803 417.682007 139.868393 416.489197 140.867996 C 415.296387 141.867599 414.708405 143.186401 414.708405 144.832794 C 414.708405 146.092804 414.968811 147.142792 415.497986 147.982803 C 416.018799 148.8228 416.87561 149.578812 418.06842 150.242401 C 419.2612 150.905991 420.865601 151.628387 422.898407 152.392792 C 425.099213 153.199203 426.96402 154.064407 428.484406 154.988403 C 430.004791 155.912399 431.163971 157.029602 431.94519 158.323196 C 432.734772 159.616806 433.129608 161.246399 433.129608 163.203598 Z"/>
        <path id="path3" fill="#000000" stroke="none" d="M 533.761597 173.2164 L 528.200806 173.2164 L 514.928833 155.324402 L 511.098419 158.684402 L 511.098419 173.2164 L 506.377625 173.2164 L 506.377625 135.752411 L 511.098419 135.752411 L 511.098419 154.223999 C 512.148438 153.031189 513.215149 151.846802 514.298828 150.654007 C 515.382385 149.461197 516.466003 148.276794 517.549622 147.084 L 527.679993 135.752411 L 533.19043 135.752411 L 518.339233 152.073593 L 533.77002 173.2164 Z"/>
        <path id="path4" fill="#000000" stroke="none" d="M 616.400818 173.2164 L 611.679993 173.2164 L 611.679993 139.893585 L 599.978821 139.893585 L 599.978821 135.752411 L 628.051575 135.752411 L 628.051575 139.893585 L 616.400818 139.893585 L 616.400818 173.2164 Z"/>
        <path id="path5" fill="#000000" stroke="none" d="M 732.102417 154.434006 C 732.102417 158.314804 731.447205 161.699997 730.136841 164.5896 C 728.826416 167.479202 726.894409 169.722 724.34082 171.334808 C 721.787231 172.947601 718.620422 173.745605 714.840393 173.745605 C 711.060425 173.745605 707.734009 172.939209 705.163574 171.334808 C 702.593201 169.722 700.67804 167.470795 699.41803 164.564407 C 698.15802 161.65799 697.528015 158.264404 697.528015 154.383591 C 697.528015 150.502808 698.15802 147.176407 699.41803 144.312012 C 700.67804 141.447601 702.593201 139.204803 705.163574 137.59201 C 707.734009 135.979202 710.97644 135.181183 714.899231 135.181183 C 718.822021 135.181183 721.787231 135.979202 724.34082 137.566803 C 726.894409 139.162796 728.826416 141.397202 730.136841 144.286804 C 731.447205 147.176407 732.102417 150.553192 732.102417 154.442398 Z M 702.509216 154.434006 C 702.509216 159.1548 703.508789 162.875992 705.499634 165.580795 C 707.490417 168.294006 710.606812 169.646408 714.840393 169.646408 C 719.073975 169.646408 722.223999 168.294006 724.181213 165.580795 C 726.138428 162.867599 727.121216 159.1548 727.121216 154.434006 C 727.121216 149.713196 726.138428 146.008804 724.181213 143.337601 C 722.223999 140.65799 719.12439 139.322403 714.890808 139.322403 C 710.657227 139.322403 707.53241 140.65799 705.52478 143.337601 C 703.508789 146.017197 702.509216 149.713196 702.509216 154.434006 Z"/>
        <path id="path6" fill="#000000" stroke="none" d="M 816.001587 135.752411 C 820.898804 135.752411 824.468811 136.718399 826.703186 138.641998 C 828.937622 140.565598 830.063171 143.278809 830.063171 146.773193 C 830.063171 148.8396 829.601196 150.771606 828.668823 152.569199 C 827.744751 154.375198 826.182373 155.8284 823.998413 156.95401 C 821.814392 158.071198 818.849182 158.634003 815.102783 158.634003 L 810.802002 158.634003 L 810.802002 173.224792 L 806.081177 173.224792 L 806.081177 135.760803 L 816.001587 135.760803 Z M 815.590027 139.792801 L 810.818787 139.792801 L 810.818787 154.593597 L 814.598816 154.593597 C 818.168823 154.593597 820.823181 154.014008 822.578796 152.86319 C 824.32605 151.712402 825.199585 149.746796 825.199585 146.9832 C 825.199585 144.572403 824.426819 142.766403 822.889587 141.582001 C 821.352417 140.389206 818.916443 139.801193 815.598389 139.801193 Z"/>
        <path id="path7" fill="#000000" stroke="none" d="M 289.187195 52.525192 L 270.245209 123.690002 L 261.173187 123.690002 L 247.321594 77.0448 C 246.792389 75.121201 246.254807 73.189209 245.725601 71.265594 C 245.196396 69.341995 244.759613 67.628403 244.431992 66.133209 C 244.095993 64.638 243.869202 63.587997 243.734802 62.991592 C 243.667587 63.856796 243.314804 65.696396 242.684799 68.527206 C 242.05481 71.349609 241.273605 74.289597 240.341202 77.347198 L 226.884415 123.698395 L 217.812393 123.698395 L 198.971191 52.5336 L 208.337204 52.5336 L 219.400009 95.995201 C 220.197983 99.052795 220.878418 102.009605 221.441193 104.865601 C 222.004013 107.721603 222.457596 110.417999 222.785202 112.937996 C 223.112793 110.3424 223.616791 107.519997 224.280396 104.462402 C 224.944016 101.4048 225.70842 98.414406 226.573608 95.491196 L 239.131592 52.5336 L 248.405197 52.5336 L 261.458801 95.79361 C 262.391205 98.851196 263.189209 101.892006 263.852783 104.916 C 264.516388 107.940002 265.011993 110.611191 265.347992 112.937996 C 265.675598 110.476807 266.145996 107.805595 266.742401 104.916 C 267.338806 102.02639 268.036011 99.019203 268.834015 95.894402 L 279.79599 52.5336 L 289.161987 52.5336 Z"/>
        <path id="path8" fill="#000000" stroke="none" d="M 339.41922 123.698395 L 299.645203 123.698395 L 299.645203 52.525192 L 339.41922 52.525192 L 339.41922 60.395996 L 308.616394 60.395996 L 308.616394 82.622398 L 337.621582 82.622398 L 337.621582 90.400795 L 308.616394 90.400795 L 308.616394 115.819206 L 339.41922 115.819206 L 339.41922 123.690002 Z"/>
        <path id="path9" fill="#000000" stroke="none" d="M 374.90921 52.525192 C 383.813202 52.525192 390.541595 53.835602 395.094421 56.464798 C 399.647186 59.094009 401.923615 63.655197 401.923615 70.173615 C 401.923615 74.356796 400.764404 77.834396 398.437592 80.5896 C 396.110809 83.344803 392.759216 85.125595 388.37442 85.923607 L 388.37442 86.419205 C 391.364807 86.881195 394.069611 87.746391 396.497192 89.014801 C 398.924805 90.274803 400.831604 92.072403 402.226013 94.3992 C 403.620392 96.725998 404.317596 99.75 404.317596 103.471199 C 404.317596 109.914001 402.108398 114.903595 397.690002 118.423195 C 393.271606 121.942795 387.240417 123.706802 379.596405 123.706802 L 354.581207 123.706802 L 354.581207 52.525192 L 374.917603 52.525192 Z M 376.698425 82.824005 C 382.813599 82.824005 386.996796 81.841187 389.256409 79.884003 C 391.515991 77.926788 392.641602 75.020401 392.641602 71.164795 C 392.641602 67.309204 391.264008 64.436386 388.50882 62.739609 C 385.753601 61.042801 381.343597 60.194397 375.304016 60.194397 L 363.544006 60.194397 L 363.544006 82.824005 L 376.698425 82.824005 Z M 363.544006 90.300003 L 363.544006 116.113197 L 377.899597 116.113197 C 384.207977 116.113197 388.601196 114.886803 391.054016 112.425598 C 393.515198 109.964401 394.741608 106.7472 394.741608 102.757202 C 394.741608 99.035995 393.464813 96.028809 390.902802 93.735596 C 388.34079 91.442398 383.779602 90.300003 377.194 90.300003 L 363.535614 90.300003 Z"/>
        <path id="path10" fill="#000000" stroke="none" d="M 450.257233 123.698395 L 426.837982 61.303207 L 426.443176 61.303207 C 426.644806 63.361191 426.804413 66.141586 426.938812 69.627594 C 427.073181 73.113602 427.140411 76.750793 427.140411 80.5392 L 427.140411 123.698395 L 418.866394 123.698395 L 418.866394 52.525192 L 432.121582 52.525192 L 454.053986 110.837997 L 454.448822 110.837997 L 476.776031 52.525192 L 489.930389 52.525192 L 489.930389 123.690002 L 481.059998 123.690002 L 481.059998 79.934402 C 481.059998 76.48201 481.143982 73.054794 481.311981 69.669601 C 481.480011 66.284409 481.622803 63.520798 481.757233 61.395599 L 481.362396 61.395599 L 457.640808 123.690002 L 450.265564 123.690002 Z"/>
        <path id="path11" fill="#000000" stroke="none" d="M 553.426025 123.698395 L 544.858032 101.673607 L 516.650818 101.673607 L 508.175171 123.698395 L 499.10318 123.698395 L 526.915588 52.231201 L 534.988037 52.231201 L 562.699585 123.698395 L 553.426025 123.698395 Z M 534.18158 72.164398 C 533.97998 71.635193 533.652405 70.669205 533.182007 69.274796 C 532.720032 67.880402 532.266418 66.435593 531.838013 64.940399 C 531.401184 63.445206 531.056824 62.302795 530.788025 61.504807 C 530.32605 63.562805 529.788391 65.578812 529.192017 67.535995 C 528.595581 69.49321 528.091614 71.038803 527.696838 72.172806 L 519.62439 93.702003 L 542.153198 93.702003 L 534.18158 72.172806 Z"/>
        <path id="path12" fill="#000000" stroke="none" d="M 612.326843 104.655594 C 612.326843 110.972397 610.033569 115.886406 605.447205 119.405998 C 600.860779 122.925598 594.678406 124.689606 586.908386 124.689606 C 582.918396 124.689606 579.230774 124.387199 575.845581 123.790794 C 572.460388 123.194405 569.629578 122.362801 567.369995 121.295998 L 567.369995 112.727997 C 569.763977 113.7948 572.73761 114.752403 576.290771 115.617599 C 579.843994 116.482796 583.514771 116.911194 587.303162 116.911194 C 592.620422 116.911194 596.618835 115.877998 599.315186 113.82 C 602.003174 111.762001 603.355591 108.973198 603.355591 105.445198 C 603.355591 103.118401 602.859985 101.161194 601.860413 99.565201 C 600.860779 97.969208 599.155579 96.490799 596.728027 95.129997 C 594.300415 93.769203 590.932007 92.324402 586.61438 90.795593 C 580.566406 88.60321 575.996826 85.915199 572.905579 82.723206 C 569.814392 79.531189 568.268799 75.179993 568.268799 69.669601 C 568.268799 65.881195 569.234802 62.638809 571.158386 59.95079 C 573.08197 57.262802 575.761597 55.179596 579.18042 53.718002 C 582.599182 52.256393 586.538818 51.525604 590.990784 51.525604 C 594.913574 51.525604 598.500427 51.895203 601.759583 52.625992 C 605.018799 53.356796 607.975586 54.3228 610.630005 55.515594 L 607.841187 63.193207 C 605.380005 62.134796 602.708801 61.235992 599.819214 60.505203 C 596.929626 59.774399 593.922363 59.4048 590.797607 59.4048 C 586.345581 59.4048 582.985596 60.354004 580.734375 62.244003 C 578.474792 64.134003 577.349182 66.645599 577.349182 69.770401 C 577.349182 72.164398 577.844788 74.155197 578.84436 75.75119 C 579.843994 77.347198 581.465149 78.775192 583.724792 80.035202 C 585.984375 81.295197 589.041992 82.664406 592.897644 84.125992 C 597.080811 85.6548 600.625549 87.301193 603.515198 89.056793 C 606.404785 90.820793 608.597229 92.929207 610.092407 95.382004 C 611.587646 97.843208 612.335205 100.934402 612.335205 104.655594 Z"/>
        <path id="path13" fill="#000000" stroke="none" d="M 648.707214 123.698395 L 639.736023 123.698395 L 639.736023 60.404404 L 617.509583 60.404404 L 617.509583 52.5336 L 670.832764 52.5336 L 670.832764 60.404404 L 648.707214 60.404404 L 648.707214 123.698395 Z"/>
        <path id="path14" fill="#000000" stroke="none" d="M 720.871582 123.698395 L 681.097595 123.698395 L 681.097595 52.525192 L 720.871582 52.525192 L 720.871582 60.395996 L 690.068787 60.395996 L 690.068787 82.622398 L 719.073975 82.622398 L 719.073975 90.400795 L 690.068787 90.400795 L 690.068787 115.819206 L 720.871582 115.819206 L 720.871582 123.690002 Z"/>
        <path id="path15" fill="#000000" stroke="none" d="M 755.664368 52.525192 C 764.501221 52.525192 771.028015 54.2052 775.253174 57.556793 C 779.470032 60.916794 781.57843 65.98201 781.57843 72.760803 C 781.57843 76.54921 780.881226 79.707596 779.486816 82.2276 C 778.092407 84.755997 776.311584 86.763611 774.152771 88.258804 C 771.993958 89.754005 769.71759 90.938408 767.323608 91.795197 L 786.862 123.690002 L 776.395569 123.690002 L 759.150391 94.290001 L 744.996399 94.290001 L 744.996399 123.690002 L 736.025208 123.690002 L 736.025208 52.525192 L 755.664368 52.525192 Z M 755.1604 60.303604 L 744.996399 60.303604 L 744.996399 86.713211 L 755.664368 86.713211 C 761.443604 86.713211 765.6604 85.570793 768.323181 83.277603 C 770.9776 80.984406 772.313171 77.615997 772.313171 73.164001 C 772.313171 68.712006 770.918823 65.209198 768.130005 63.243607 C 765.341187 61.286392 761.015198 60.303604 755.168823 60.303604 Z"/>
        <path id="path16" fill="#000000" stroke="none" d="M 837.891968 104.655594 C 837.891968 110.972397 835.598816 115.886406 831.01239 119.405998 C 826.426025 122.925598 820.243591 124.689606 812.473572 124.689606 C 808.483582 124.689606 804.796021 124.387199 801.410828 123.790794 C 798.025574 123.194405 795.194763 122.362801 792.935181 121.295998 L 792.935181 112.727997 C 795.329224 113.7948 798.302795 114.752403 801.856018 115.617599 C 805.40918 116.482796 809.080017 116.911194 812.868408 116.911194 C 818.185547 116.911194 822.18396 115.877998 824.880432 113.82 C 827.56842 111.762001 828.920776 108.973198 828.920776 105.445198 C 828.920776 103.118401 828.425171 101.161194 827.425598 99.565201 C 826.426025 97.969208 824.720825 96.490799 822.293213 95.129997 C 819.865601 93.769203 816.497192 92.324402 812.179626 90.795593 C 806.131592 88.60321 801.562012 85.915199 798.470825 82.723206 C 795.379578 79.531189 793.833984 75.179993 793.833984 69.669601 C 793.833984 65.881195 794.799988 62.638809 796.723572 59.95079 C 798.647217 57.262802 801.326843 55.179596 804.745605 53.718002 C 808.164368 52.256393 812.104004 51.525604 816.55603 51.525604 C 820.478821 51.525604 824.065552 51.895203 827.324768 52.625992 C 830.583984 53.356796 833.540771 54.3228 836.19519 55.515594 L 833.406433 63.193207 C 830.94519 62.134796 828.273987 61.235992 825.384399 60.505203 C 822.494751 59.774399 819.48761 59.4048 816.362793 59.4048 C 811.910828 59.4048 808.550781 60.354004 806.299622 62.244003 C 804.039978 64.134003 802.914368 66.645599 802.914368 69.770401 C 802.914368 72.164398 803.410034 74.155197 804.409607 75.75119 C 805.40918 77.347198 807.030396 78.775192 809.289978 80.035202 C 811.549622 81.295197 814.607239 82.664406 818.462769 84.125992 C 822.645996 85.6548 826.190796 87.301193 829.080383 89.056793 C 831.970032 90.820793 834.162415 92.929207 835.657593 95.382004 C 837.152771 97.843208 837.900391 100.934402 837.900391 104.655594 Z"/>
        <path id="path17" fill="#000000" stroke="none" d="M 172.746399 164.052002 L 89.552803 210 L 89.552803 99.590401 L 172.746399 53.642395 L 172.746399 164.052002 Z"/>
        <path id="path18" fill="#000000" stroke="none" d="M 0.1096 164.052002 L 83.3032 210 L 83.3032 99.590401 L 0.1096 53.642395 L 0.1096 164.052002 Z"/>
        <path id="path19" fill="#000000" stroke="none" d="M 86.428001 0 L 3.1336 47.695206 L 83.101601 91.845596 L 86.428001 93.752403 L 89.754402 91.845596 L 169.722412 47.695206 L 86.428001 0 Z"/>
    </g>
</svg>
