<?xml version="1.0" encoding="UTF-8"?>
<!-- Generated by Pixelmator Pro 3.7.1 -->
<svg width="1000" height="150" viewBox="0 0 1000 150" xmlns="http://www.w3.org/2000/svg">
    <path id="trimnest" fill="#ffffff" fill-rule="evenodd" stroke="none" d="M 851.231995 42.960007 L 834.492004 138 L 865.452026 138 L 882.192017 42.960007 L 918.192017 42.960007 L 923.59198 12 L 820.632019 12 L 815.231995 42.960007 Z M 806.015991 47.459999 L 774.335999 54.120003 C 774.575989 48.959976 773.496033 45.330017 771.096008 43.229996 C 768.695984 41.12999 765.096008 40.080002 760.296021 40.080002 C 756.935974 40.080002 754.085999 40.919998 751.745972 42.600006 C 749.406006 44.280014 748.236023 46.199989 748.236023 48.360001 C 748.236023 50.520012 749.645996 52.55999 752.466003 54.480003 C 755.286011 56.400009 758.795959 58.109993 762.995972 59.610001 C 767.196045 61.110008 771.605957 63.119987 776.226013 65.639999 C 780.846008 68.160011 785.075989 70.889984 788.916016 73.830002 C 792.756042 76.770012 795.635986 80.819977 797.55603 85.980003 C 799.476013 91.140022 799.895996 96.959969 798.815979 103.440002 C 798.575989 105.000008 797.945984 107.009987 796.926025 109.470001 C 795.906006 111.930008 793.986023 115.04998 791.166016 118.830002 C 788.346008 122.610016 785.015991 126.059982 781.176025 129.179993 C 777.335999 132.300018 772.08606 134.999985 765.426025 137.279999 C 758.765991 139.560013 751.416016 140.699997 743.375977 140.699997 C 736.055969 140.699997 729.666016 139.830017 724.205994 138.089996 C 718.745972 136.349991 714.635986 134.040009 711.875977 131.160004 C 709.115967 128.279984 706.895996 125.070023 705.216003 121.529999 C 703.536011 117.989983 702.755981 114.420013 702.875977 110.82 C 702.995972 107.219978 703.236023 103.800018 703.596008 100.559998 L 735.276001 93.900002 C 734.676025 99.900032 735.575989 104.039986 737.976013 106.32 C 740.376038 108.600014 744.03595 109.739998 748.955994 109.739998 C 753.276001 109.739998 757.055969 108.69001 760.296021 106.589996 C 763.536011 104.48999 765.096008 102.180016 764.976013 99.660004 C 764.856018 97.37999 763.385986 95.250008 760.565979 93.269997 C 757.745972 91.289993 754.296021 89.610008 750.216003 88.230003 C 746.135986 86.849991 741.846008 85.020012 737.346008 82.739998 C 732.845947 80.459991 728.765991 77.94001 725.106018 75.18 C 721.445984 72.419983 718.686035 68.550026 716.825989 63.57 C 714.966003 58.589973 714.635986 52.860031 715.835999 46.379997 C 716.075989 44.819992 716.585999 42.840012 717.366028 40.440002 C 718.145996 38.039993 719.735962 34.920013 722.135986 31.080002 C 724.536011 27.239975 727.445984 23.76001 730.866028 20.639999 C 734.286011 17.519989 739.055969 14.820007 745.176025 12.539993 C 751.296021 10.259995 758.135986 9.119995 765.695984 9.119995 C 772.896057 9.119995 779.195984 9.929993 784.596008 11.550003 C 789.996033 13.170013 794.105957 15.329987 796.926025 18.029999 C 799.746033 20.730011 802.055969 23.759979 803.856018 27.119995 C 805.656006 30.480011 806.526001 33.899979 806.466003 37.380005 C 806.406006 40.860016 806.255981 44.219986 806.015991 47.459999 Z M 319.511993 12 L 350.112 12 L 327.971985 138 L 297.372009 138 L 319.511993 12 Z M 415.488007 12 L 368.14801 12 L 346.007996 138 L 376.967987 138 L 391.90799 53.760002 L 397.488007 138 L 419.088013 138 L 454.548004 53.760002 L 439.608002 138 L 470.567993 138 L 492.708008 12 L 445.368011 12 L 419.627991 73.559998 L 415.488007 12 Z M 510.743988 12 L 547.104004 12 L 563.484009 80.940002 L 575.544006 12 L 606.504028 12 L 584.364014 138 L 548.004028 138 L 531.803955 68.519997 L 519.563965 138 L 488.604004 138 L 510.743988 12 Z M 710.940002 12 L 624.539978 12 L 602.400024 138 L 688.799988 138 L 694.200012 107.040001 L 639.840027 107.040001 L 642.900024 90.480003 L 681.599976 90.480003 L 687 59.519997 L 648.299988 59.519997 L 651.179993 42.960007 L 705.539978 42.960007 L 710.940002 12 Z M 112.800003 138 L 129.540009 42.960007 L 93.540001 42.960007 L 98.940002 12 L 201.899994 12 L 196.5 42.960007 L 160.5 42.960007 L 143.759995 138 L 112.800003 138 Z M 290.675995 138 L 273.755981 91.559998 C 279.876038 87.599983 284.585999 82.740028 287.885986 76.980003 C 291.186035 71.219971 293.615997 63.960045 295.175995 55.199997 C 297.81601 40.319931 296.196045 29.40004 290.315979 22.440002 C 284.435974 15.479965 273.57608 12 257.735992 12 L 212.735992 12 L 190.596008 138 L 221.916 138 L 228.936005 98.580002 L 242.796005 98.580002 L 256.115997 138 L 290.675995 138 Z M 238.656006 43.139999 L 253.416 43.139999 C 258.216003 43.020004 261.455994 43.709991 263.135986 45.210007 C 264.81601 46.710007 265.176025 50.03997 264.216003 55.199997 C 263.255981 60.360023 261.696014 63.689995 259.536011 65.190002 C 257.375977 66.69001 253.896027 67.440002 249.095993 67.440002 L 234.335999 67.440002 L 238.656006 43.139999 Z"/>
</svg>
