<?xml version="1.0" encoding="UTF-8"?>
<!-- Generated by Pixelmator Pro 3.7.1 -->
<svg width="831" height="132" viewBox="0 0 831 132" xmlns="http://www.w3.org/2000/svg">
    <path id="trimnest" fill="#000000" fill-rule="evenodd" stroke="none" d="M 758.231995 33.960007 L 741.492004 129 L 772.452026 129 L 789.192017 33.960007 L 825.192017 33.960007 L 830.59198 3 L 727.632019 3 L 722.231995 33.960007 Z M 713.015991 38.459999 L 681.335999 45.120003 C 681.575989 39.959976 680.496033 36.330017 678.096008 34.229996 C 675.695984 32.12999 672.096008 31.080002 667.296021 31.080002 C 663.935974 31.080002 661.085999 31.919998 658.745972 33.600006 C 656.406006 35.280014 655.236023 37.199989 655.236023 39.360001 C 655.236023 41.520012 656.645996 43.55999 659.466003 45.480003 C 662.286011 47.400009 665.795959 49.109993 669.995972 50.610001 C 674.196045 52.110008 678.605957 54.119987 683.226013 56.639999 C 687.846008 59.160011 692.075989 61.889984 695.916016 64.830002 C 699.756042 67.770012 702.635986 71.819977 704.55603 76.980003 C 706.476013 82.140022 706.895996 87.959969 705.815979 94.440002 C 705.575989 96.000008 704.945984 98.009987 703.926025 100.470001 C 702.906006 102.930008 700.986023 106.04998 698.166016 109.830002 C 695.346008 113.610016 692.015991 117.059982 688.176025 120.18 C 684.335999 123.300018 679.08606 125.999985 672.426025 128.279999 C 665.765991 130.560013 658.416016 131.699997 650.375977 131.699997 C 643.055969 131.699997 636.666016 130.830017 631.205994 129.089996 C 625.745972 127.349991 621.635986 125.040016 618.875977 122.160004 C 616.115967 119.279984 613.895996 116.070023 612.216003 112.529999 C 610.536011 108.989983 609.755981 105.420013 609.875977 101.82 C 609.995972 98.219978 610.236023 94.800018 610.596008 91.559998 L 642.276001 84.900002 C 641.676025 90.900032 642.575989 95.039986 644.976013 97.32 C 647.376038 99.600014 651.03595 100.739998 655.955994 100.739998 C 660.276001 100.739998 664.055969 99.69001 667.296021 97.589996 C 670.536011 95.48999 672.096008 93.180016 671.976013 90.660004 C 671.856018 88.37999 670.385986 86.250008 667.565979 84.269997 C 664.745972 82.289993 661.296021 80.610008 657.216003 79.230003 C 653.135986 77.849991 648.846008 76.020012 644.346008 73.739998 C 639.845947 71.459991 635.765991 68.94001 632.106018 66.18 C 628.445984 63.419983 625.686035 59.550026 623.825989 54.57 C 621.966003 49.589973 621.635986 43.860031 622.835999 37.379997 C 623.075989 35.819992 623.585999 33.840012 624.366028 31.440002 C 625.145996 29.039993 626.735962 25.920013 629.135986 22.080002 C 631.536011 18.239975 634.445984 14.76001 637.866028 11.639999 C 641.286011 8.519989 646.055969 5.820007 652.176025 3.539993 C 658.296021 1.259995 665.135986 0.119995 672.695984 0.119995 C 679.896057 0.119995 686.195984 0.929993 691.596008 2.550003 C 696.996033 4.170013 701.105957 6.329987 703.926025 9.029999 C 706.746033 11.730011 709.055969 14.759979 710.856018 18.119995 C 712.656006 21.480011 713.526001 24.899979 713.466003 28.380005 C 713.406006 31.860016 713.255981 35.219986 713.015991 38.459999 Z M 226.511993 3 L 257.112 3 L 234.971985 129 L 204.372009 129 L 226.511993 3 Z M 322.488007 3 L 275.14801 3 L 253.007996 129 L 283.967987 129 L 298.90799 44.760002 L 304.488007 129 L 326.088013 129 L 361.548004 44.760002 L 346.608002 129 L 377.567993 129 L 399.708008 3 L 352.368011 3 L 326.627991 64.559998 L 322.488007 3 Z M 417.743988 3 L 454.104004 3 L 470.484009 71.940002 L 482.544006 3 L 513.504028 3 L 491.364014 129 L 455.004028 129 L 438.803955 59.519997 L 426.563965 129 L 395.604004 129 L 417.743988 3 Z M 617.940002 3 L 531.539978 3 L 509.400024 129 L 595.799988 129 L 601.200012 98.040001 L 546.840027 98.040001 L 549.900024 81.480003 L 588.599976 81.480003 L 594 50.519997 L 555.299988 50.519997 L 558.179993 33.960007 L 612.539978 33.960007 L 617.940002 3 Z M 19.800003 129 L 36.540009 33.960007 L 0.540001 33.960007 L 5.940002 3 L 108.899994 3 L 103.5 33.960007 L 67.5 33.960007 L 50.759995 129 L 19.800003 129 Z M 197.675995 129 L 180.755981 82.559998 C 186.876038 78.599983 191.585999 73.740028 194.885986 67.980003 C 198.186035 62.219971 200.615997 54.960045 202.175995 46.199997 C 204.81601 31.319931 203.196045 20.40004 197.315979 13.440002 C 191.435974 6.479965 180.57608 3 164.735992 3 L 119.735992 3 L 97.596008 129 L 128.916 129 L 135.936005 89.580002 L 149.796005 89.580002 L 163.115997 129 L 197.675995 129 Z M 145.656006 34.139999 L 160.416 34.139999 C 165.216003 34.020004 168.455994 34.709991 170.135986 36.210007 C 171.81601 37.710007 172.176025 41.03997 171.216003 46.199997 C 170.255981 51.360023 168.696014 54.689995 166.536011 56.190002 C 164.375977 57.69001 160.896027 58.440002 156.095993 58.440002 L 141.335999 58.440002 L 145.656006 34.139999 Z"/>
</svg>
