<?xml version="1.0" encoding="UTF-8"?>
<!-- Generated by Pixelmator Pro 3.7.1 -->
<svg width="1000" height="150" viewBox="0 0 1000 150" xmlns="http://www.w3.org/2000/svg">
    <path id="EXIT15" fill="#ffffff" fill-rule="evenodd" stroke="none" d="M 830.356018 39.216003 L 786.507996 39.216003 L 784.323975 53.160004 C 786.339966 52.936005 788.187988 52.740005 789.868042 52.572006 C 791.547974 52.403992 793.283997 52.320007 795.075989 52.320007 C 801.460022 52.320007 807.395996 53.439987 812.883972 55.679993 C 818.372009 57.920013 823.075989 60.999977 826.995972 64.919998 C 830.916016 68.840019 833.995972 73.543976 836.236023 79.031998 C 838.476013 84.520027 839.596008 90.511971 839.596008 97.008003 C 839.596008 103.840034 838.335999 109.999969 835.815979 115.487999 C 833.295959 120.976028 829.740051 125.651978 825.14801 129.515991 C 820.555969 133.38002 814.956055 136.347992 808.348022 138.419998 C 801.73999 140.492004 794.404053 141.528 786.339966 141.528 C 778.723999 141.528 771.472046 140.604004 764.583984 138.755997 C 757.695923 136.90799 751.228027 134.080017 745.179993 130.272003 L 750.052002 99.360001 C 755.652039 104.176025 761.364014 107.843987 767.187988 110.363998 C 773.012024 112.88401 778.555969 114.143997 783.820007 114.143997 C 790.540039 114.143997 795.859985 112.32402 799.780029 108.683998 C 803.700012 105.043983 805.659973 100.536026 805.659973 95.160004 C 805.659973 88.88797 803.028015 83.820023 797.763977 79.956001 C 792.5 76.09198 785.612061 74.160004 777.099976 74.160004 C 773.291992 74.160004 769.372009 74.579994 765.339966 75.419998 C 761.307983 76.260002 757.332031 77.575989 753.411987 79.367996 L 763.995972 11.328003 L 830.356018 11.328003 Z M 683.859985 39.216003 L 665.380005 39.216003 L 665.380005 11.328003 L 716.787964 11.328003 L 716.787964 138 L 683.859985 138 Z M 617.667969 39.216003 L 617.667969 138 L 584.73999 138 L 584.73999 39.216003 L 557.692017 39.216003 L 557.692017 11.328003 L 644.716003 11.328003 L 644.716003 39.216003 Z M 549.796021 11.328003 L 549.796021 138 L 516.867981 138 L 516.867981 11.328003 Z M 424.804016 70.463997 L 385.324005 11.328003 L 425.97998 11.328003 L 443.115997 44.087997 L 464.283997 11.328003 L 504.940002 11.328003 L 463.108002 70.463997 L 510.315979 138 L 470.164001 138 L 444.796021 96.671997 L 415.059998 138 L 375.244019 138 Z M 371.548004 39.216003 L 332.403992 39.216003 L 332.403992 60.384003 L 369.364014 60.384003 L 369.364014 88.272003 L 332.403992 88.272003 L 332.403992 110.112 L 371.548004 110.112 L 371.548004 138 L 299.476013 138 L 299.476013 11.328003 L 371.548004 11.328003 Z"/>
</svg>
