<?xml version="1.0" encoding="UTF-8"?>
<!-- Generated by Pixelmator Pro 3.7.1 -->
<svg width="541" height="131" viewBox="0 0 541 131" xmlns="http://www.w3.org/2000/svg">
    <path id="EXIT15" fill="#000000" fill-rule="evenodd" stroke="none" d="M 531.356018 28.216003 L 487.507996 28.216003 L 485.323975 42.160004 C 487.339966 41.936005 489.187988 41.740005 490.868042 41.572006 C 492.547974 41.403992 494.283997 41.320007 496.075989 41.320007 C 502.460022 41.320007 508.395996 42.439987 513.883972 44.679993 C 519.372009 46.920013 524.075989 49.999977 527.995972 53.919998 C 531.916016 57.840019 534.995972 62.543976 537.236023 68.031998 C 539.476013 73.520027 540.596008 79.511971 540.596008 86.008003 C 540.596008 92.840034 539.335999 98.999969 536.815979 104.487999 C 534.295959 109.976028 530.740051 114.651978 526.14801 118.515999 C 521.555969 122.38002 515.956055 125.347992 509.348022 127.419998 C 502.73999 129.492004 495.404053 130.528 487.339966 130.528 C 479.723999 130.528 472.472046 129.604004 465.583984 127.755997 C 458.695923 125.90799 452.228027 123.080017 446.179993 119.272003 L 451.052002 88.360001 C 456.652039 93.176025 462.364014 96.843987 468.187988 99.363998 C 474.012024 101.88401 479.555969 103.143997 484.820007 103.143997 C 491.540039 103.143997 496.859985 101.32402 500.780029 97.683998 C 504.700012 94.043983 506.659973 89.536026 506.659973 84.160004 C 506.659973 77.88797 504.028015 72.820023 498.763977 68.956001 C 493.5 65.09198 486.612061 63.160004 478.099976 63.160004 C 474.291992 63.160004 470.372009 63.579994 466.339966 64.419998 C 462.307983 65.260002 458.332031 66.575989 454.411987 68.367996 L 464.995972 0.328003 L 531.356018 0.328003 Z M 384.859985 28.216003 L 366.380005 28.216003 L 366.380005 0.328003 L 417.787964 0.328003 L 417.787964 127 L 384.859985 127 Z M 318.667969 28.216003 L 318.667969 127 L 285.73999 127 L 285.73999 28.216003 L 258.692017 28.216003 L 258.692017 0.328003 L 345.716003 0.328003 L 345.716003 28.216003 Z M 250.796021 0.328003 L 250.796021 127 L 217.867981 127 L 217.867981 0.328003 Z M 125.804016 59.463997 L 86.324005 0.328003 L 126.97998 0.328003 L 144.115997 33.087997 L 165.283997 0.328003 L 205.940002 0.328003 L 164.108002 59.463997 L 211.315979 127 L 171.164001 127 L 145.796021 85.671997 L 116.059998 127 L 76.244019 127 Z M 72.548004 28.216003 L 33.403992 28.216003 L 33.403992 49.384003 L 70.364014 49.384003 L 70.364014 77.272003 L 33.403992 77.272003 L 33.403992 99.112 L 72.548004 99.112 L 72.548004 127 L 0.476013 127 L 0.476013 0.328003 L 72.548004 0.328003 Z"/>
</svg>
