<?xml version="1.0" encoding="UTF-8"?>
<!-- Generated by Pixelmator Pro 3.7.1 -->
<svg width="1000" height="150" viewBox="0 0 1000 150" xmlns="http://www.w3.org/2000/svg">
    <path id="Datona" fill="#ffffff" fill-rule="evenodd" stroke="none" d="M 707.702454 69.101463 C 707.702454 69.546341 708.647827 71.381447 710.538574 74.606827 C 711.539551 76.275131 712.040039 77.776581 712.040039 79.111221 C 712.040039 84.672226 709.148315 87.452682 703.364868 87.452682 C 700.473145 87.452682 698.109741 86.590744 696.274658 84.866829 C 694.439514 83.142921 693.521973 80.668312 693.521973 77.442924 C 693.521973 71.659485 696.747314 66.571243 703.198059 62.178047 C 709.648804 57.784851 717.712158 55.588287 727.388306 55.588287 C 736.174683 55.588287 743.098022 57.506805 748.158508 61.343903 C 753.219055 65.180992 755.749268 70.15802 755.749268 76.275124 L 755.749268 119.150246 C 755.749268 126.379547 757.973633 129.994141 762.422424 129.994141 C 763.645874 129.994141 764.785828 129.799515 765.842468 129.410248 C 766.899048 129.020966 768.039001 128.38147 769.262451 127.491707 L 772.43219 131.996094 C 768.428284 136.222458 763.979553 138.335602 759.085876 138.335602 C 751.411682 138.335602 745.906372 133.664429 742.569763 124.321953 C 737.676086 129.43808 733.449768 132.941452 729.890747 134.832199 C 725.553162 137.167816 720.270264 138.335602 714.041992 138.335602 C 706.367798 138.335602 700.389771 136.667328 696.107788 133.330734 C 691.825806 129.994125 689.684875 125.545395 689.684875 119.98439 C 689.684875 112.087769 694.272644 105.386856 703.448303 99.881462 C 712.623962 94.376068 725.441895 90.678055 741.902466 88.787315 L 741.902466 77.109268 C 741.902466 72.549248 740.20636 68.823425 736.814148 65.931709 C 733.421936 63.039986 729.167847 61.594147 724.051697 61.594147 C 719.714111 61.594147 715.904907 62.456085 712.623901 64.18 C 709.342896 65.903908 707.702454 67.54438 707.702454 69.101463 Z M 741.902466 105.63707 L 741.902466 94.459511 C 729.000916 96.239037 719.630737 98.936081 713.791748 102.550735 C 707.952637 106.165382 705.033203 111.420456 705.033203 118.316101 C 705.033203 122.542458 706.173157 125.851204 708.453125 128.242432 C 710.733154 130.633667 713.819458 131.829269 717.712158 131.829269 C 724.162964 131.829269 729.807251 129.35466 734.645386 124.405365 C 739.483459 119.45607 741.902466 113.200035 741.902466 105.63707 Z M 587.084839 63.262436 L 587.084839 57.75708 L 613.110229 56.42244 C 613.888794 59.981476 614.472656 63.123398 614.861938 65.848289 C 615.251221 68.573181 615.445862 71.103401 615.445862 73.439026 C 622.341492 62.094574 631.850708 56.42244 643.973633 56.42244 C 651.759033 56.42244 657.820435 58.869247 662.158081 63.762924 C 666.495605 68.656609 668.664429 75.385323 668.664429 83.949265 L 668.664429 121.986343 C 668.664429 124.766846 669.248291 126.740967 670.416138 127.908783 C 671.583923 129.076599 673.724854 129.660492 676.838989 129.660492 L 682.51123 129.660492 L 682.51123 136 L 641.137573 136 L 641.137573 129.660492 L 644.974609 129.660492 C 651.536621 129.660492 654.817566 127.324905 654.817566 122.653656 L 654.817566 89.287804 C 654.817566 73.494553 648.978638 65.598045 637.300476 65.598045 C 631.18335 65.598045 626.011719 68.100464 621.7854 73.10537 C 617.55896 78.110268 615.445862 84.72776 615.445862 92.958046 L 615.445862 121.986343 C 615.445862 124.878067 616.057556 126.87999 617.281006 127.992195 C 618.504395 129.104401 620.72876 129.660492 623.954102 129.660492 L 629.292725 129.660492 L 629.292725 136 L 587.919067 136 L 587.919067 129.660492 L 593.257568 129.660492 C 598.818604 129.660492 601.598999 127.714165 601.598999 123.821465 L 601.598999 73.439026 C 601.598999 66.654602 598.151245 63.262436 591.255615 63.262436 Z M 543.20874 55.421463 C 553.885864 55.421463 562.755615 59.258499 569.818054 66.932686 C 576.880493 74.606865 580.411743 84.672134 580.411743 97.128784 C 580.411743 109.362991 576.797119 119.28923 569.56781 126.907806 C 562.338501 134.526382 553.496643 138.335602 543.041992 138.335602 C 532.58728 138.335602 523.884399 134.470764 516.933167 126.740974 C 509.981903 119.011177 506.506348 109.084938 506.506348 96.961952 C 506.506348 84.838966 509.954102 74.884918 516.849731 67.09951 C 523.745361 59.314102 532.531616 55.421463 543.20874 55.421463 Z M 543.20874 61.427322 C 536.424316 61.427322 531.169312 64.402412 527.44342 70.352684 C 523.717529 76.302956 521.854614 84.894577 521.854614 96.127808 C 521.854614 108.028351 523.689697 117.037041 527.359985 123.154144 C 531.030273 129.271255 536.368774 132.329758 543.37561 132.329758 C 550.382446 132.329758 555.748779 129.215637 559.474609 122.98732 C 563.2005 116.758995 565.063416 107.694695 565.063416 95.794144 C 565.063416 84.560921 563.144897 76.02491 559.3078 70.185852 C 555.470703 64.346802 550.104431 61.427322 543.20874 61.427322 Z M 441.94342 65.431221 L 441.94342 59.592194 C 456.513245 57.145355 463.798035 45.967911 463.798035 26.059509 L 469.470245 26.059509 L 469.470245 57.75708 L 494.828278 57.75708 L 494.828278 65.431221 L 469.470245 65.431221 L 469.470245 115.646828 C 469.470245 119.873192 470.471191 123.209747 472.473175 125.656586 C 474.475128 128.103424 477.255585 129.326828 480.814636 129.326828 C 485.152222 129.326828 488.572174 127.380508 491.074646 123.487808 C 493.577087 119.5951 494.828278 113.922966 494.828278 106.471222 L 500.500488 106.471222 C 500.500488 116.481026 498.303925 124.127289 493.910736 129.410248 C 489.517548 134.693192 483.595154 137.334625 476.143433 137.334625 C 469.803864 137.334625 464.799042 135.610748 461.128784 132.162933 C 457.458496 128.715103 455.623413 123.932716 455.623413 117.815613 L 455.623413 65.431221 Z M 372.041931 69.101463 C 372.041931 69.546341 372.987305 71.381447 374.878052 74.606827 C 375.879028 76.275131 376.379517 77.776581 376.379517 79.111221 C 376.379517 84.672226 373.487854 87.452682 367.704407 87.452682 C 364.812683 87.452682 362.44928 86.590744 360.614136 84.866829 C 358.779022 83.142921 357.86145 80.668312 357.86145 77.442924 C 357.86145 71.659485 361.086792 66.571243 367.537567 62.178047 C 373.988342 57.784851 382.051666 55.588287 391.727783 55.588287 C 400.514191 55.588287 407.437531 57.506805 412.498047 61.343903 C 417.558563 65.180992 420.088776 70.15802 420.088776 76.275124 L 420.088776 119.150246 C 420.088776 126.379547 422.313141 129.994141 426.761963 129.994141 C 427.985352 129.994141 429.125366 129.799515 430.181946 129.410248 C 431.238525 129.020966 432.37854 128.38147 433.601929 127.491707 L 436.771729 131.996094 C 432.767792 136.222458 428.319031 138.335602 423.425354 138.335602 C 415.75116 138.335602 410.24585 133.664429 406.909271 124.321953 C 402.015564 129.43808 397.789307 132.941452 394.230225 134.832199 C 389.892639 137.167816 384.609802 138.335602 378.38147 138.335602 C 370.707275 138.335602 364.729309 136.667328 360.447327 133.330734 C 356.165344 129.994125 354.024384 125.545395 354.024384 119.98439 C 354.024384 112.087769 358.612152 105.386856 367.787811 99.881462 C 376.96344 94.376068 389.781372 90.678055 406.241943 88.787315 L 406.241943 77.109268 C 406.241943 72.549248 404.545868 68.823425 401.153656 65.931709 C 397.761444 63.039986 393.507324 61.594147 388.391235 61.594147 C 384.05365 61.594147 380.244385 62.456085 376.963409 64.18 C 373.682434 65.903908 372.041931 67.54438 372.041931 69.101463 Z M 406.241943 105.63707 L 406.241943 94.459511 C 393.340424 96.239037 383.970276 98.936081 378.131226 102.550735 C 372.292175 106.165382 369.372681 111.420456 369.372681 118.316101 C 369.372681 122.542458 370.512665 125.851204 372.792664 128.242432 C 375.072693 130.633667 378.158997 131.829269 382.051697 131.829269 C 388.502472 131.829269 394.14679 129.35466 398.984863 124.405365 C 403.822937 119.45607 406.241943 113.200035 406.241943 105.63707 Z M 227.901459 19.052689 L 227.901459 12.713165 L 291.630249 12.713165 C 299.193207 12.713165 305.588257 13.575119 310.815613 15.299026 C 316.042969 17.022934 321.325836 20.387299 326.664398 25.392197 C 339.121033 37.181519 345.349274 53.419403 345.349274 74.106339 C 345.349274 91.679115 341.20639 105.803848 332.920471 116.480972 C 324.634583 127.158104 313.04007 133.44194 298.136597 135.332687 C 296.468292 135.555115 294.271729 135.721954 291.546814 135.833176 C 288.82193 135.944397 286.625366 136 284.957062 136 L 227.901459 136 L 227.901459 129.660492 L 239.579514 129.660492 C 244.918076 129.660492 247.587311 127.714165 247.587311 123.821465 L 247.587311 24.558044 C 247.587311 20.887787 245.251724 19.052689 240.58049 19.052689 Z M 286.792206 19.052689 L 272.778534 19.052689 C 267.773621 19.052689 265.27121 21.054611 265.27121 25.058533 L 265.27121 123.654633 C 265.27121 127.658554 268.329712 129.660492 274.446838 129.660492 L 284.957062 129.660492 C 299.082031 129.660492 309.314117 125.350777 315.653656 116.731216 C 321.993195 108.111664 325.162933 94.570824 325.162933 76.108292 C 325.162933 56.533554 322.048828 42.130783 315.820496 32.899506 C 309.592163 23.668243 299.916168 19.052689 286.792206 19.052689 Z"/>
</svg>
