<?xml version="1.0" encoding="UTF-8"?>
<!-- Generated by Pixelmator Pro 3.7.1 -->
<svg width="786" height="144" viewBox="0 0 786 144" xmlns="http://www.w3.org/2000/svg">
    <path id="Un-Advertising" fill="#000000" fill-rule="evenodd" stroke="none" d="M 758.740967 143.380859 C 753.089905 143.472 748.281982 142.936523 744.317139 141.774414 C 740.352234 140.612305 736.752014 138.709656 733.516357 136.066406 L 739.873779 124.650391 C 742.289124 126.199875 744.920959 127.464516 747.769287 128.444336 C 750.617615 129.424164 753.705139 129.891281 757.031982 129.845703 C 760.495544 129.800125 763.138733 128.592468 764.96167 126.222656 C 766.784607 123.852852 767.696045 120.685562 767.696045 116.720703 L 767.696045 108.585938 C 766.511108 112.003922 764.699646 114.350906 762.261475 115.626953 C 759.823303 116.903 756.872498 117.541016 753.408936 117.541016 C 748.578186 117.541016 744.784241 116.264984 742.0271 113.712891 C 739.269897 111.160797 737.321716 107.6745 736.182373 103.253906 C 735.04303 98.833313 734.473389 93.820343 734.473389 88.214844 L 734.473389 55.197266 C 734.473389 49.22718 735.065796 43.906601 736.250732 39.235352 C 737.435608 34.564102 739.463623 30.884125 742.334717 28.195313 C 745.205811 25.5065 749.147827 24.184898 754.160889 24.230469 C 757.669983 24.230469 760.575256 25.119133 762.876709 26.896484 C 765.178162 28.673836 766.784546 31.225891 767.696045 34.552734 L 767.696045 25.460938 L 785.811279 25.460938 L 785.811279 115.353516 C 785.811279 119.409523 785.35553 123.135071 784.444092 126.530273 C 783.532593 129.925476 782.028748 132.864899 779.932373 135.348633 C 777.835999 137.832367 775.056091 139.769196 771.592529 141.15918 C 768.128967 142.549164 763.845154 143.289719 758.740967 143.380859 Z M 760.58667 103.800781 C 762.227295 103.800781 763.571655 103.310883 764.619873 102.331055 C 765.66803 101.351227 766.442749 99.665054 766.944092 97.272461 C 767.445374 94.879868 767.696045 91.541687 767.696045 87.257813 L 767.696045 53.693359 C 767.696045 49.181618 767.14917 45.58139 766.05542 42.892578 C 764.96167 40.203766 762.979248 38.859375 760.108154 38.859375 C 757.920654 38.859375 756.302795 39.497391 755.254639 40.773438 C 754.206421 42.049484 753.522827 43.792633 753.203857 46.00293 C 752.884827 48.213226 752.725342 50.753891 752.725342 53.625 L 752.725342 87.394531 C 752.725342 92.453156 753.203857 96.452133 754.160889 99.391602 C 755.11792 102.33107 757.259827 103.800781 760.58667 103.800781 Z M 665.88092 128 L 665.88092 25.460938 L 683.996155 25.460938 L 683.996155 37.21875 C 684.907593 33.709618 686.821655 30.667656 689.738342 28.092773 C 692.655029 25.517891 696.232483 24.230469 700.470764 24.230469 C 706.395264 24.230469 710.838562 26.201477 713.800842 30.143555 C 716.763123 34.085632 718.244202 39.793579 718.244202 47.267578 L 718.244202 128 L 700.128967 128 L 700.128967 48.361328 C 700.128967 45.399071 699.456787 43.074875 698.112366 41.388672 C 696.767944 39.702469 694.933655 38.859375 692.609436 38.859375 C 690.740967 38.859375 689.157288 39.372063 687.858459 40.397461 C 686.559631 41.422859 685.591187 42.835602 684.953186 44.635742 C 684.315186 46.435883 683.996155 48.54361 683.996155 50.958984 L 683.996155 128 Z M 629.485718 128 L 629.485718 25.460938 L 647.600952 25.460938 L 647.600952 128 Z M 629.417358 16.027344 L 629.417358 0.304688 L 647.669312 0.304688 L 647.669312 16.027344 Z M 591.449951 129.298828 C 583.201172 129.298828 577.071716 126.951843 573.061279 122.257813 C 569.050842 117.563782 567.045654 109.884819 567.045654 99.220703 L 567.045654 92.589844 L 584.067139 92.589844 L 584.067139 100.861328 C 584.067139 105.327499 584.613953 108.722641 585.707764 111.046875 C 586.801514 113.371109 588.578796 114.533203 591.039795 114.533203 C 593.409546 114.533203 595.164124 113.735687 596.303467 112.140625 C 597.442749 110.545563 598.012451 107.788429 598.012451 103.869141 C 598.012451 101.590485 597.682007 99.380219 597.02124 97.238281 C 596.360413 95.096344 595.335022 92.988617 593.945068 90.915039 C 592.555054 88.841461 590.766357 86.824875 588.578857 84.865234 L 579.350342 76.525391 C 575.112 72.697243 571.944702 68.561546 569.848389 64.118164 C 567.752014 59.674782 566.703857 54.764351 566.703857 49.386719 C 566.703857 40.682251 568.743225 34.313499 572.822021 30.280273 C 576.900818 26.247047 582.950562 24.230469 590.971436 24.230469 C 596.166748 24.230469 600.473328 25.198883 603.891357 27.135742 C 607.309326 29.072601 609.861389 32.205704 611.547607 36.535156 C 613.233765 40.864609 614.076904 46.675095 614.076904 53.966797 L 614.076904 59.572266 L 597.875732 59.572266 L 597.875732 52.804688 C 597.875732 48.292946 597.363037 44.875015 596.337646 42.550781 C 595.312195 40.226547 593.569092 39.064453 591.108154 39.064453 C 588.692749 39.064453 586.915405 39.736649 585.776123 41.081055 C 584.63678 42.425461 584.021545 44.783836 583.93042 48.15625 C 583.884827 49.979179 584.112671 51.767899 584.614014 53.522461 C 585.115295 55.277023 585.901428 56.985992 586.972412 58.649414 C 588.043335 60.312836 589.444702 61.942047 591.176514 63.537109 L 600.883545 72.355469 C 605.987732 76.958359 609.75885 81.766251 612.197021 86.779297 C 614.635132 91.792343 615.854248 97.215469 615.854248 103.048828 C 615.854248 111.662155 613.894592 118.190407 609.975342 122.633789 C 606.05603 127.077171 599.880981 129.298828 591.449951 129.298828 Z M 533.794983 128 L 533.794983 25.460938 L 551.910217 25.460938 L 551.910217 128 Z M 533.726624 16.027344 L 533.726624 0.304688 L 551.978577 0.304688 L 551.978577 16.027344 Z M 508.33728 128.683594 C 503.96228 128.683594 500.612671 128.125336 498.288452 127.008789 C 495.964233 125.892242 494.369202 124.126312 493.503296 121.710938 C 492.637451 119.295563 492.204468 116.173843 492.204468 112.345703 L 492.204468 40.705078 L 483.864624 40.705078 L 483.864624 27.580078 L 492.204468 27.580078 L 492.204468 7.6875 L 510.319702 7.6875 L 510.319702 27.580078 L 520.300171 27.580078 L 520.300171 40.705078 L 510.319702 40.705078 L 510.319702 109.201172 C 510.319702 110.796234 510.570374 112.003906 511.071655 112.824219 C 511.572937 113.644531 512.564148 114.191406 514.045288 114.464844 C 515.526428 114.738281 517.725281 114.875 520.641968 114.875 L 520.641968 128.683594 Z M 442.205811 128 L 442.205811 25.460938 L 460.457764 25.460938 L 460.457764 36.876953 C 461.642578 32.912086 463.704773 29.813164 466.644287 27.580078 C 469.58374 25.346992 473.332031 24.230469 477.889404 24.230469 C 477.980469 24.230469 478.037476 25.005203 478.060303 26.554688 C 478.083008 28.104172 478.094482 29.8815 478.094482 31.886719 C 478.094482 33.891937 478.094482 35.669266 478.094482 37.21875 C 478.094482 38.768234 478.094482 39.542969 478.094482 39.542969 C 475.998047 39.542969 473.730835 39.793617 471.292725 40.294922 C 468.854492 40.796227 466.644287 41.559563 464.661865 42.584961 C 462.679382 43.610359 461.278076 44.966141 460.457764 46.652344 L 460.457764 128 Z M 401.435577 129.230469 C 396.285828 129.230469 392.05896 128.410156 388.754913 126.769531 C 385.450867 125.128899 382.876007 122.759132 381.030304 119.660156 C 379.184601 116.56118 377.897156 112.835632 377.167999 108.483398 C 376.438843 104.131165 376.074249 99.266304 376.074249 93.888672 L 376.074249 55.675781 C 376.074249 50.890602 376.564148 46.561218 377.543976 42.6875 C 378.523804 38.813782 380.050476 35.509781 382.124054 32.775391 C 384.197632 30.041 386.897797 27.933273 390.22464 26.452148 C 393.551483 24.971024 397.561859 24.230469 402.25589 24.230469 C 407.041077 24.230469 411.028687 24.959625 414.21875 26.417969 C 417.408936 27.876312 419.926758 29.99543 421.772461 32.775391 C 423.618164 35.555351 424.939819 38.893532 425.737305 42.790039 C 426.534851 46.686546 426.933594 51.09568 426.933594 56.017578 L 426.933594 77.960938 L 394.326202 77.960938 L 394.326202 98.126953 C 394.326202 103.094421 394.713562 107.082016 395.488312 110.089844 C 396.263062 113.097672 398.382172 114.601563 401.845734 114.601563 C 404.169952 114.601563 405.82196 113.895187 406.801758 112.482422 C 407.781616 111.069656 408.374023 109.121429 408.579102 106.637695 C 408.78418 104.153961 408.886719 101.317078 408.886719 98.126953 L 408.886719 89.103516 L 426.796875 89.103516 L 426.796875 94.572266 C 426.796875 100.086617 426.466492 104.985657 425.805664 109.269531 C 425.144897 113.553406 423.914429 117.176422 422.114258 120.138672 C 420.314148 123.100922 417.750732 125.356766 414.423828 126.90625 C 411.097046 128.455734 406.767639 129.230469 401.435577 129.230469 Z M 394.257843 67.365234 L 408.886719 67.365234 L 408.886719 54.240234 C 408.886719 50.82225 408.727234 47.939789 408.408203 45.592773 C 408.089233 43.245758 407.451172 41.47982 406.494141 40.294922 C 405.537109 39.110023 404.078827 38.517578 402.119171 38.517578 C 399.703796 38.517578 397.937866 39.223953 396.82132 40.636719 C 395.704773 42.049484 394.998413 43.974922 394.702179 46.413086 C 394.405945 48.85125 394.257843 51.619774 394.257843 54.71875 Z M 328.331421 128 L 313.497437 25.460938 L 330.58728 25.460938 L 337.21814 80.011719 L 339.473999 104.552734 L 340.841187 104.552734 L 342.755249 79.943359 L 348.429077 25.460938 L 365.382202 25.460938 L 350.548218 128 Z M 268.420593 129.025391 C 262.860657 129.025391 258.736359 127.53289 256.047546 124.547852 C 253.358734 121.562813 251.604187 117.518257 250.783875 112.414063 C 249.963562 107.309875 249.553406 101.59053 249.553406 95.255859 L 249.553406 53.488281 C 249.553406 47.97393 250.214203 43.017929 251.535828 38.620117 C 252.857452 34.222305 255.010742 30.724625 257.995789 28.126953 C 260.980835 25.529282 264.934235 24.230469 269.85614 24.230469 C 272.772827 24.230469 275.39325 24.925446 277.717468 26.31543 C 280.041687 27.705414 281.841797 29.539703 283.117859 31.818359 L 283.117859 6.662109 L 301.233093 6.662109 L 301.233093 128 L 283.117859 128 L 283.117859 118.498047 C 281.750671 121.961609 279.836609 124.582024 277.375671 126.359375 C 274.914734 128.136734 271.929718 129.025391 268.420593 129.025391 Z M 275.119812 114.601563 C 277.307312 114.601563 278.982117 113.952156 280.144226 112.65332 C 281.306335 111.354485 282.103851 109.349297 282.536804 106.637695 C 282.969757 103.926094 283.186218 100.496765 283.186218 96.349609 L 283.186218 55.333984 C 283.186218 50.320938 282.69632 46.333351 281.716492 43.371094 C 280.736664 40.408836 278.628937 38.927734 275.39325 38.927734 C 272.294281 38.927734 270.254913 40.374657 269.275085 43.268555 C 268.295258 46.162453 267.805359 50.252579 267.805359 55.539063 L 267.805359 97.716797 C 267.805359 101.225929 268.02182 104.245102 268.454773 106.774414 C 268.887726 109.303726 269.628265 111.240555 270.676453 112.584961 C 271.72464 113.929367 273.20575 114.601563 275.119812 114.601563 Z M 180.550781 128 L 197.708984 7.6875 L 221.908203 7.6875 L 240.160156 128 L 223.070313 128 L 220.199219 106.535156 L 200.785156 106.535156 L 198.1875 128 Z M 202.5625 91.837891 L 218.285156 91.837891 L 210.21875 31.408203 L 209.945313 31.408203 Z M 137.114594 82.814453 L 137.114594 70.851563 L 169.790375 70.851563 L 169.790375 82.814453 Z M 70.231125 128 L 70.231125 25.460938 L 88.346359 25.460938 L 88.346359 37.21875 C 89.257813 33.709618 91.171875 30.667656 94.088547 28.092773 C 97.005219 25.517891 100.582672 24.230469 104.820969 24.230469 C 110.745483 24.230469 115.188782 26.201477 118.151047 30.143555 C 121.113297 34.085632 122.594406 39.793579 122.594406 47.267578 L 122.594406 128 L 104.479172 128 L 104.479172 48.361328 C 104.479172 45.399071 103.806976 43.074875 102.46257 41.388672 C 101.118164 39.702469 99.283875 38.859375 96.959641 38.859375 C 95.091141 38.859375 93.507507 39.372063 92.208664 40.397461 C 90.909821 41.422859 89.941406 42.835602 89.303391 44.635742 C 88.665375 46.435883 88.346359 48.54361 88.346359 50.958984 L 88.346359 128 Z M 26.726563 129.367188 C 20.48304 129.367188 15.401711 128.193695 11.482422 125.84668 C 7.563133 123.499664 4.692062 119.945007 2.869141 115.182617 C 1.046219 110.420227 0.134766 104.393265 0.134766 97.101563 L 0.134766 7.6875 L 18.455078 7.6875 L 18.455078 96.759766 C 18.455078 100.132179 18.603188 103.094391 18.899414 105.646484 C 19.195641 108.198578 19.913406 110.180984 21.052734 111.59375 C 22.192062 113.006516 24.060532 113.712891 26.658203 113.712891 C 29.255875 113.712891 31.135742 113.017914 32.297852 111.62793 C 33.459961 110.237946 34.177734 108.266937 34.451172 105.714844 C 34.724609 103.16275 34.861328 100.17775 34.861328 96.759766 L 34.861328 7.6875 L 53.181641 7.6875 L 53.181641 97.101563 C 53.181641 104.393265 52.281586 110.420227 50.481445 115.182617 C 48.681305 119.945007 45.833023 123.499664 41.936523 125.84668 C 38.040024 128.193695 32.970093 129.367188 26.726563 129.367188 Z"/>
</svg>
