<?xml version="1.0" encoding="UTF-8"?>
<!-- Generated by Pixelmator Pro 3.7.1 -->
<svg width="940" height="131" viewBox="0 0 940 131" xmlns="http://www.w3.org/2000/svg">
    <path id="Un-Advertising" fill="#ffffff" fill-rule="evenodd" stroke="none" d="M 890.59198 68.919998 C 890.59198 70.920013 890.952026 72.779991 891.671997 74.5 C 892.392029 76.220009 893.372009 77.719994 894.612 79 C 895.85199 80.280006 897.33197 81.279999 899.052002 82 C 900.772034 82.720001 902.632019 83.080002 904.632019 83.080002 C 906.552002 83.080002 908.372009 82.720001 910.09198 82 C 911.812012 81.279999 913.291992 80.280006 914.531982 79 C 915.772034 77.719994 916.771973 76.220009 917.531982 74.5 C 918.291992 72.779991 918.671997 70.960007 918.671997 69.040001 C 918.671997 67.039993 918.291992 65.200012 917.531982 63.519997 C 916.771973 61.839989 915.752014 60.360008 914.471985 59.080002 C 913.192017 57.799995 911.692017 56.800003 909.971985 56.080002 C 908.252014 55.359993 906.471985 55 904.632019 55 C 902.711975 55 900.911987 55.379997 899.231995 56.139999 C 897.552002 56.900002 896.072021 57.899994 894.791992 59.139999 C 893.512024 60.380005 892.492004 61.839989 891.731995 63.519997 C 890.971985 65.200012 890.59198 66.999992 890.59198 68.919998 Z M 939.312012 38.440002 L 939.312012 95.800003 C 939.312012 99.240021 939.112 102.319992 938.711975 105.040001 C 938.312012 107.76001 937.752014 110.159988 937.031982 112.239998 C 936.072021 114.880013 934.572021 117.339989 932.531982 119.619995 C 930.492004 121.900009 928.032043 123.87999 925.151978 125.559998 C 922.271973 127.240005 919.012024 128.559998 915.372009 129.520004 C 911.731995 130.480011 907.791992 130.960007 903.552002 130.960007 C 898.751953 130.960007 894.35199 130.360001 890.35199 129.160004 C 886.35199 127.959991 882.85199 126.300011 879.85199 124.18 C 876.85199 122.05999 874.392029 119.580017 872.471985 116.739998 C 870.552002 113.899986 869.272034 110.800018 868.632019 107.440002 L 893.112 107.440002 C 894.632019 111.52002 898.07196 113.559998 903.432007 113.559998 C 907.992004 113.559998 911.492004 112.280014 913.932007 109.720001 C 916.372009 107.159988 917.59198 103.600021 917.59198 99.040001 L 917.59198 93.160004 C 915.992004 94.680008 914.452026 95.939995 912.971985 96.940002 C 911.492004 97.940002 909.992004 98.759995 908.471985 99.400002 C 906.951965 100.040009 905.35199 100.5 903.671997 100.779999 C 901.992004 101.059998 900.152039 101.199997 898.151978 101.199997 C 893.751953 101.199997 889.712036 100.440002 886.031982 98.919998 C 882.35199 97.399994 879.171997 95.280014 876.492004 92.559998 C 873.812012 89.839981 871.731995 86.580017 870.252014 82.779999 C 868.771973 78.97998 868.031982 74.760025 868.031982 70.120003 C 868.031982 65.399979 868.83197 61.02002 870.432007 56.980003 C 872.031982 52.93998 874.211975 49.420013 876.971985 46.419998 C 879.731995 43.419983 883.011963 41.060005 886.812012 39.339996 C 890.612 37.619995 894.751953 36.760002 899.231995 36.760002 C 906.512024 36.760002 912.631958 39.479973 917.59198 44.919998 L 917.59198 38.440002 Z M 790.728027 38.440002 L 812.447998 38.440002 L 812.447998 46.239998 C 815.40802 42.639984 818.407959 40.220009 821.447998 38.980003 C 824.488037 37.73999 828.047974 37.120003 832.127991 37.120003 C 836.447998 37.120003 840.14801 37.819992 843.228027 39.220001 C 846.308044 40.62001 848.927979 42.599991 851.088013 45.160004 C 852.848022 47.240013 854.047974 49.55999 854.687988 52.120003 C 855.328003 54.680016 855.64801 57.599983 855.64801 60.879997 L 855.64801 100 L 833.927979 100 L 833.927979 68.919998 C 833.927979 65.879982 833.708008 63.420006 833.268005 61.540001 C 832.828003 59.659988 832.048035 58.160004 830.927979 57.040001 C 829.968018 56.079994 828.888 55.400002 827.687988 55 C 826.487976 54.599998 825.208008 54.400002 823.848022 54.400002 C 820.167969 54.400002 817.348022 55.499992 815.388 57.699997 C 813.427979 59.900009 812.447998 63.039978 812.447998 67.120003 L 812.447998 100 L 790.728027 100 Z M 775.823975 38.440002 L 775.823975 100 L 754.104004 100 L 754.104004 38.440002 Z M 752.664001 14.800003 C 752.664001 13.119995 752.984009 11.540009 753.624023 10.059998 C 754.263977 8.579987 755.143982 7.279999 756.263977 6.160004 C 757.384033 5.039993 758.684021 4.160004 760.164001 3.520004 C 761.643982 2.87999 763.223999 2.559998 764.903992 2.559998 C 766.583984 2.559998 768.164001 2.87999 769.643982 3.520004 C 771.124023 4.160004 772.424011 5.039993 773.544006 6.160004 C 774.664001 7.279999 775.544006 8.579987 776.184021 10.059998 C 776.823975 11.540009 777.143982 13.119995 777.143982 14.800003 C 777.143982 16.480011 776.823975 18.05999 776.184021 19.540001 C 775.544006 21.020004 774.664001 22.319992 773.544006 23.440002 C 772.424011 24.560005 771.124023 25.439995 769.643982 26.080002 C 768.164001 26.720001 766.583984 27.040001 764.903992 27.040001 C 763.223999 27.040001 761.643982 26.720001 760.164001 26.080002 C 758.684021 25.439995 757.384033 24.560005 756.263977 23.440002 C 755.143982 22.319992 754.263977 21.020004 753.624023 19.540001 C 752.984009 18.05999 752.664001 16.480011 752.664001 14.800003 Z M 733.799988 54.279999 C 729.799988 52.199989 725.880005 51.160004 722.039978 51.160004 C 720.039978 51.160004 718.419983 51.559998 717.179993 52.360001 C 715.940002 53.160004 715.320007 54.23999 715.320007 55.599998 C 715.320007 56.320007 715.419983 56.900002 715.619995 57.339996 C 715.820007 57.779999 716.26001 58.199997 716.940002 58.599998 C 717.619995 59 718.619995 59.360001 719.940002 59.68 C 721.26001 60 723 60.399994 725.159973 60.879997 C 731.160034 62.080009 735.640015 64.219986 738.599976 67.300003 C 741.559998 70.380013 743.039978 74.319977 743.039978 79.119995 C 743.039978 82.720016 742.320007 85.959984 740.880005 88.839996 C 739.440002 91.720016 737.440002 94.139992 734.880005 96.099998 C 732.320007 98.060013 729.23999 99.579994 725.640015 100.660004 C 722.039978 101.740005 718.080017 102.279999 713.76001 102.279999 C 705.439941 102.279999 697.240051 99.920029 689.159973 95.199997 L 697.080017 79.839996 C 703.160034 84.000015 708.919983 86.080002 714.359985 86.080002 C 716.359985 86.080002 718 85.639999 719.280029 84.759995 C 720.559998 83.879997 721.200012 82.76001 721.200012 81.400002 C 721.200012 80.599991 721.099976 79.940002 720.900024 79.419998 C 720.700012 78.899994 720.280029 78.419998 719.640015 77.979996 C 719 77.539993 718.059998 77.139999 716.820007 76.779999 C 715.580017 76.419998 713.960022 76.040001 711.960022 75.639999 C 705.23999 74.279999 700.540039 72.26001 697.859985 69.580002 C 695.179993 66.899986 693.840027 63.20002 693.840027 58.480003 C 693.840027 55.039986 694.47998 51.94001 695.76001 49.18 C 697.039978 46.419983 698.880005 44.080009 701.280029 42.160004 C 703.679993 40.23999 706.579956 38.760002 709.97998 37.720001 C 713.380005 36.679993 717.159973 36.160004 721.320007 36.160004 C 728.120056 36.160004 734.719971 37.479988 741.119995 40.120003 Z M 678.096008 38.440002 L 678.096008 100 L 656.375977 100 L 656.375977 38.440002 Z M 654.935974 14.800003 C 654.935974 13.119995 655.255981 11.540009 655.895996 10.059998 C 656.536011 8.579987 657.416016 7.279999 658.536011 6.160004 C 659.656006 5.039993 660.955994 4.160004 662.435974 3.520004 C 663.916016 2.87999 665.495972 2.559998 667.176025 2.559998 C 668.856018 2.559998 670.435974 2.87999 671.916016 3.520004 C 673.395996 4.160004 674.695984 5.039993 675.815979 6.160004 C 676.936035 7.279999 677.815979 8.579987 678.455994 10.059998 C 679.096008 11.540009 679.416016 13.119995 679.416016 14.800003 C 679.416016 16.480011 679.096008 18.05999 678.455994 19.540001 C 677.815979 21.020004 676.936035 22.319992 675.815979 23.440002 C 674.695984 24.560005 673.395996 25.439995 671.916016 26.080002 C 670.435974 26.720001 668.856018 27.040001 667.176025 27.040001 C 665.495972 27.040001 663.916016 26.720001 662.435974 26.080002 C 660.955994 25.439995 659.656006 24.560005 658.536011 23.440002 C 657.416016 22.319992 656.536011 21.020004 655.895996 19.540001 C 655.255981 18.05999 654.935974 16.480011 654.935974 14.800003 Z M 634.151978 56.559998 L 634.151978 100 L 612.432007 100 L 612.432007 56.559998 L 605.231995 56.559998 L 605.231995 38.440002 L 612.432007 38.440002 L 612.432007 19.959999 L 634.151978 19.959999 L 634.151978 38.440002 L 646.512024 38.440002 L 646.512024 56.559998 Z M 551.687988 38.440002 L 573.40802 38.440002 L 573.40802 48.519997 C 575.728027 44.839981 578.567993 42.020012 581.927979 40.059998 C 585.288025 38.099991 589.208008 37.120003 593.687988 37.120003 C 594.247986 37.120003 594.867981 37.120003 595.547974 37.120003 C 596.228027 37.120003 597.007996 37.199997 597.888 37.360001 L 597.888 58.120003 C 595.007996 56.679993 591.888 55.959999 588.528015 55.959999 C 583.487976 55.959999 579.708008 57.459984 577.187988 60.459999 C 574.667969 63.460014 573.40802 67.839973 573.40802 73.599998 L 573.40802 100 L 551.687988 100 Z M 519.023987 60.279999 C 518.304016 57.239983 516.824036 54.800011 514.583984 52.959999 C 512.343994 51.119987 509.624023 50.199997 506.424011 50.199997 C 503.063965 50.199997 500.323975 51.079994 498.203979 52.839996 C 496.083984 54.600006 494.744019 57.079987 494.18396 60.279999 Z M 493.583984 72.880005 C 493.583984 82.240051 497.983948 86.919998 506.783997 86.919998 C 511.504028 86.919998 515.063965 85.000015 517.463989 81.160004 L 538.463989 81.160004 C 534.223999 95.240067 523.624084 102.279999 506.664001 102.279999 C 501.463989 102.279999 496.703979 101.500008 492.384033 99.940002 C 488.063965 98.37999 484.364014 96.160019 481.283997 93.279999 C 478.203979 90.399986 475.824005 86.960022 474.144012 82.959999 C 472.463989 78.959976 471.623993 74.480026 471.623993 69.519997 C 471.623993 64.399971 472.423981 59.780022 474.023987 55.660004 C 475.623993 51.539978 477.903992 48.040016 480.864014 45.160004 C 483.823975 42.279984 487.403992 40.060005 491.604004 38.5 C 495.804016 36.939995 500.543945 36.160004 505.823975 36.160004 C 511.024048 36.160004 515.703979 36.939995 519.864014 38.5 C 524.024048 40.060005 527.544006 42.319984 530.424011 45.279999 C 533.304016 48.240013 535.503967 51.859978 537.023987 56.139999 C 538.544006 60.420021 539.304016 65.239975 539.304016 70.599998 L 539.304016 72.880005 Z M 415.679993 38.440002 L 430.320007 70 L 445.200012 38.440002 L 469.440002 38.440002 L 437.399994 100 L 422.880005 100 L 391.200012 38.440002 Z M 333.455994 69.040001 C 333.455994 71.040009 333.81601 72.899994 334.536011 74.619995 C 335.256012 76.340012 336.235992 77.839996 337.476013 79.119995 C 338.716003 80.400009 340.195984 81.399994 341.915985 82.119995 C 343.636017 82.840004 345.496002 83.199997 347.496002 83.199997 C 349.416016 83.199997 351.235992 82.840004 352.955994 82.119995 C 354.675995 81.399994 356.156006 80.400009 357.395996 79.119995 C 358.636017 77.839996 359.635986 76.360008 360.395996 74.68 C 361.156006 72.999992 361.536011 71.200012 361.536011 69.279999 C 361.536011 67.359993 361.156006 65.540009 360.395996 63.82 C 359.635986 62.099991 358.636017 60.600006 357.395996 59.32 C 356.156006 58.039993 354.675995 57.040001 352.955994 56.32 C 351.235992 55.599998 349.416016 55.239998 347.496002 55.239998 C 345.575989 55.239998 343.756012 55.599998 342.036011 56.32 C 340.315979 57.040001 338.835999 58.039993 337.596008 59.32 C 336.355988 60.600006 335.356018 62.05999 334.596008 63.699997 C 333.835999 65.340012 333.455994 67.119987 333.455994 69.040001 Z M 360.81601 0.399994 L 382.656006 0.399994 L 382.656006 100 L 360.81601 100 L 360.81601 93.160004 C 356.175964 99.000031 349.896027 101.919998 341.976013 101.919998 C 337.495972 101.919998 333.376007 101.080009 329.615997 99.400002 C 325.855988 97.719986 322.576019 95.400009 319.776001 92.440002 C 316.975983 89.47998 314.796021 86.000015 313.235992 82 C 311.675995 77.999985 310.895996 73.680023 310.895996 69.040001 C 310.895996 64.639977 311.635986 60.460022 313.115997 56.5 C 314.596008 52.539978 316.695984 49.080017 319.415985 46.120003 C 322.136017 43.159988 325.395996 40.820007 329.196014 39.099998 C 332.996033 37.37999 337.175964 36.519997 341.735992 36.519997 C 349.416046 36.519997 355.77597 39.199974 360.81601 44.559998 Z M 268.631989 66.400002 L 258.071991 36.279999 L 247.511993 66.400002 Z M 274.872009 84.279999 L 241.272003 84.279999 L 235.872009 100 L 210.792007 100 L 245.231995 9.519989 L 270.911987 9.519989 L 305.35199 100 L 280.272003 100 Z M 169.848007 58.839996 L 204.287994 58.839996 L 204.287994 76.959999 L 169.848007 76.959999 Z M 97.584 38.440002 L 119.304001 38.440002 L 119.304001 46.239998 C 122.264008 42.639984 125.263992 40.220009 128.304001 38.980003 C 131.344009 37.73999 134.903976 37.120003 138.983994 37.120003 C 143.304016 37.120003 147.003983 37.819992 150.084 39.220001 C 153.164017 40.62001 155.783997 42.599991 157.944 45.160004 C 159.70401 47.240013 160.903992 49.55999 161.544006 52.120003 C 162.184006 54.680016 162.503998 57.599983 162.503998 60.879997 L 162.503998 100 L 140.783997 100 L 140.783997 68.919998 C 140.783997 65.879982 140.563995 63.420006 140.123993 61.540001 C 139.68399 59.659988 138.904007 58.160004 137.783997 57.040001 C 136.82399 56.079994 135.744003 55.400002 134.544006 55 C 133.343994 54.599998 132.064011 54.400002 130.703995 54.400002 C 127.023987 54.400002 124.20401 55.499992 122.244003 57.699997 C 120.283997 59.900009 119.304001 63.039978 119.304001 67.120003 L 119.304001 100 L 97.584 100 Z M 24 9.519989 L 24 58.720001 C 24 61.360016 24.099998 64.05999 24.299999 66.82 C 24.5 69.580017 25.099995 72.079987 26.099998 74.32 C 27.100006 76.560013 28.679989 78.37999 30.84 79.779999 C 33.000015 81.180008 36.039978 81.880005 39.959999 81.880005 C 43.88002 81.880005 46.899994 81.180008 49.020004 79.779999 C 51.140015 78.37999 52.719994 76.560013 53.759995 74.32 C 54.800003 72.079987 55.419998 69.580017 55.620003 66.82 C 55.82 64.05999 55.919998 61.360016 55.919998 58.720001 L 55.919998 9.519989 L 79.32 9.519989 L 79.32 61.959999 C 79.32 76.04007 76.100029 86.319969 69.660004 92.800003 C 63.219971 99.280029 53.320068 102.520004 39.959999 102.520004 C 26.599934 102.520004 16.680031 99.280029 10.200001 92.800003 C 3.719967 86.319969 0.48 76.04007 0.48 61.959999 L 0.48 9.519989 Z"/>
</svg>
