<?xml version="1.0" encoding="UTF-8"?>
<!-- Generated by Pixelmator Pro 3.7.1 -->
<svg width="1000" height="150" viewBox="0 0 1000 150" xmlns="http://www.w3.org/2000/svg">
    <path id="Un-Advertising" fill="#ffffff" fill-rule="evenodd" stroke="none" d="M 983.761108 48.349609 L 983.761108 55.521484 L 971.285034 55.521484 C 972.380737 57.214859 973.264771 59.0327 973.937134 60.975098 C 974.609497 62.917496 974.945679 65.034164 974.945679 67.325195 C 974.945679 71.110367 974.086548 74.484604 972.368286 77.447998 C 970.649963 80.411392 968.246948 82.914047 965.159058 84.956055 C 962.071106 86.998062 958.373169 88.554443 954.065063 89.625244 C 949.756897 90.696045 945.013062 91.231445 939.833374 91.231445 C 938.339172 91.231445 936.782837 91.131836 935.164185 90.932617 C 933.545471 90.733398 932.088745 90.509277 930.793823 90.260254 C 929.897278 90.95752 929.187622 91.804199 928.664673 92.800293 C 928.141724 93.796387 927.880249 94.867188 927.880249 96.012695 C 927.880249 96.361328 927.979858 96.685059 928.179077 96.983887 C 928.378296 97.282715 928.826477 97.556641 929.523804 97.805664 C 930.221069 98.054688 931.254456 98.303711 932.624146 98.552734 C 933.993774 98.801758 935.861389 99.025879 938.227173 99.225098 C 940.592896 99.424316 943.506409 99.623535 946.967896 99.822754 C 950.429321 100.021973 954.625305 100.196289 959.55603 100.345703 C 964.088257 100.544922 967.898254 101.030518 970.986206 101.80249 C 974.074097 102.574463 976.56427 103.60791 978.456909 104.902832 C 980.349487 106.197754 981.706604 107.729233 982.528442 109.497314 C 983.35022 111.265388 983.761108 113.220207 983.761108 115.361816 C 983.761108 119.1968 982.752563 122.645737 980.735474 125.70874 C 978.718323 128.771744 975.80481 131.398926 971.994751 133.590332 C 968.184631 135.781738 963.527954 137.462646 958.024536 138.633057 C 952.521057 139.803467 946.307983 140.388672 939.385132 140.388672 C 926.983704 140.388672 917.670288 139.131119 911.444702 136.615967 C 905.219055 134.100815 902.106323 130.776398 902.106323 126.642578 C 902.106323 125.098625 902.554504 123.592049 903.45105 122.122803 C 904.347534 120.653557 905.505432 119.184334 906.924927 117.715088 C 908.34436 116.245842 909.9505 114.813972 911.74353 113.419434 C 913.536499 112.024895 915.354309 110.630379 917.197144 109.23584 C 914.607239 108.339355 912.515503 107.21875 910.921753 105.874023 C 909.327942 104.529297 908.531128 103.010269 908.531128 101.316895 C 908.531128 100.121582 908.892151 98.888916 909.61438 97.618896 C 910.336548 96.348877 911.320129 95.10376 912.565308 93.883545 C 913.810425 92.66333 915.267151 91.505371 916.935669 90.409668 C 918.604126 89.313965 920.384583 88.342773 922.277222 87.496094 C 920.03595 86.5 918.018921 85.391846 916.225952 84.171631 C 914.432922 82.951416 912.91394 81.5569 911.668823 79.988037 C 910.423645 78.419174 909.464966 76.663589 908.792603 74.721191 C 908.120239 72.778793 907.784058 70.562515 907.784058 68.072266 C 907.784058 64.187485 908.643127 60.738541 910.36145 57.725342 C 912.079712 54.712143 914.445374 52.184586 917.458618 50.142578 C 920.471802 48.100571 924.020325 46.544189 928.10437 45.473389 C 932.188354 44.402588 936.596008 43.867188 941.327515 43.867188 C 943.568726 43.867188 945.772522 43.979248 947.939087 44.203369 C 950.105591 44.42749 952.135071 44.751221 954.02771 45.174561 C 955.920288 45.5979 957.626038 46.083496 959.145142 46.631348 C 960.664185 47.179199 961.871887 47.751953 962.768433 48.349609 Z M 957.090698 112.821777 C 954.002747 112.821777 950.914917 112.771973 947.827026 112.672363 C 944.739075 112.572754 941.81311 112.435791 939.04895 112.261475 C 936.284729 112.087158 933.782104 111.900391 931.540894 111.701172 C 929.299622 111.501953 927.481812 111.327637 926.08728 111.178223 C 924.593079 112.323738 923.447632 113.768059 922.650757 115.51123 C 921.853821 117.254402 921.455444 118.947746 921.455444 120.591309 C 921.455444 121.886238 921.940979 123.106438 922.912231 124.251953 C 923.883423 125.397469 925.340149 126.418449 927.282593 127.314941 C 929.224976 128.211426 931.652893 128.921143 934.566528 129.444092 C 937.480103 129.967041 940.854309 130.228516 944.689331 130.228516 C 948.872925 130.228516 952.620667 129.917236 955.932739 129.294678 C 959.244751 128.672119 962.046204 127.875252 964.33728 126.904053 C 966.628296 125.932854 968.38385 124.837166 969.604126 123.616943 C 970.824341 122.396721 971.434448 121.16407 971.434448 119.918945 C 971.434448 117.428696 970.139526 115.623299 967.549683 114.502686 C 964.959778 113.382072 961.473511 112.821777 957.090698 112.821777 Z M 942.149292 85.852539 C 943.693237 85.852539 945.174866 85.416748 946.59436 84.545166 C 948.013794 83.673584 949.271301 82.528076 950.367065 81.108643 C 951.462769 79.689209 952.346802 78.058121 953.019165 76.215332 C 953.691528 74.372543 954.02771 72.455093 954.02771 70.462891 C 954.02771 67.574203 953.654175 64.834976 952.907104 62.245117 C 952.159973 59.655258 951.126587 57.389175 949.806763 55.446777 C 948.486877 53.504379 946.955444 51.9729 945.21228 50.852295 C 943.469055 49.731689 941.626343 49.171387 939.68396 49.171387 C 937.841125 49.171387 936.259888 49.619629 934.940063 50.516113 C 933.620178 51.412598 932.524536 52.60791 931.652954 54.102051 C 930.781311 55.596191 930.146362 57.33934 929.747925 59.331543 C 929.349487 61.323746 929.150269 63.440414 929.150269 65.681641 C 929.150269 68.371109 929.461548 70.93602 930.084106 73.376465 C 930.706665 75.81691 931.590637 77.958481 932.736206 79.80127 C 933.881714 81.644058 935.251282 83.113281 936.845093 84.208984 C 938.438843 85.304688 940.206848 85.852539 942.149292 85.852539 Z M 871.894043 65.308105 C 871.894043 61.821762 871.209229 59.157242 869.8396 57.314453 C 868.469971 55.471664 866.86377 54.550293 865.020996 54.550293 C 864.124512 54.550293 863.103516 54.724609 861.958008 55.073242 C 860.8125 55.421875 859.604736 55.932373 858.334717 56.604736 C 857.064697 57.2771 855.769775 58.073975 854.449951 58.995361 C 853.130127 59.916748 851.847656 60.950195 850.602539 62.095703 L 850.602539 112 L 829.833984 112 L 829.833984 43.867188 L 850.602539 43.867188 L 850.602539 49.171387 C 853.740234 46.830551 857.139404 45.124756 860.800049 44.053955 C 864.460754 42.983154 868.108887 42.447754 871.744629 42.447754 C 874.533691 42.447754 877.185791 42.995605 879.700928 44.091309 C 882.216064 45.187012 884.419922 46.668686 886.3125 48.536377 C 888.205078 50.404068 889.71167 52.595444 890.832275 55.110596 C 891.952881 57.625748 892.513184 60.327621 892.513184 63.216309 L 892.513184 112 L 871.894043 112 Z M 791.926941 47.527832 L 812.546082 41.850098 L 812.546082 112 L 791.926941 112 Z M 791.030457 22.052734 C 791.030457 20.658203 791.316833 19.35083 791.889587 18.130615 C 792.462341 16.9104 793.246765 15.8396 794.242859 14.918213 C 795.238953 13.996826 796.409363 13.274658 797.754089 12.751709 C 799.098816 12.22876 800.543152 11.967285 802.087097 11.967285 C 803.631042 11.967285 805.08783 12.22876 806.457458 12.751709 C 807.827087 13.274658 809.009949 13.996826 810.006042 14.918213 C 811.002136 15.8396 811.799011 16.9104 812.396667 18.130615 C 812.994324 19.35083 813.293152 20.658203 813.293152 22.052734 C 813.293152 23.447266 812.994324 24.754639 812.396667 25.974854 C 811.799011 27.195068 811.002136 28.265869 810.006042 29.187256 C 809.009949 30.108643 807.827087 30.830811 806.457458 31.35376 C 805.08783 31.876709 803.631042 32.138184 802.087097 32.138184 C 800.543152 32.138184 799.098816 31.876709 797.754089 31.35376 C 796.409363 30.830811 795.238953 30.108643 794.242859 29.187256 C 793.246765 28.265869 792.462341 27.195068 791.889587 25.974854 C 791.316833 24.754639 791.030457 23.447266 791.030457 22.052734 Z M 734.969604 92.949707 C 736.214722 96.635269 737.957825 99.523911 740.199097 101.615723 C 742.440308 103.707535 745.254211 104.753418 748.640991 104.753418 C 751.479858 104.753418 753.795715 104.068604 755.588745 102.698975 C 757.381714 101.329346 758.278198 99.673355 758.278198 97.730957 C 758.278198 96.137192 757.97937 94.705322 757.381714 93.435303 C 756.783997 92.165283 755.937378 91.007324 754.841675 89.961426 C 753.745911 88.915527 752.463501 87.969238 750.994263 87.122559 C 749.524963 86.275879 747.943726 85.479004 746.250366 84.731934 C 743.560852 83.536621 740.896362 82.241699 738.256714 80.847168 C 735.617004 79.452637 733.22644 77.858902 731.084839 76.065918 C 728.943176 74.272934 727.212524 72.218521 725.8927 69.902588 C 724.572815 67.586655 723.912964 64.909683 723.912964 61.871582 C 723.912964 58.982895 724.510559 56.343277 725.705933 53.952637 C 726.901245 51.561996 728.582092 49.520035 730.748657 47.82666 C 732.915161 46.133286 735.517395 44.825928 738.555542 43.904541 C 741.593628 42.983154 744.930481 42.522461 748.566284 42.522461 C 751.903198 42.522461 754.854065 42.83374 757.419067 43.456299 C 759.984009 44.078857 762.262512 44.962891 764.254761 46.108398 C 766.246948 47.253906 767.990051 48.648422 769.484253 50.291992 C 770.978394 51.935562 772.323059 53.803207 773.518433 55.89502 L 761.565308 60.15332 C 760.917786 57.961899 760.145874 56.256104 759.24939 55.035889 C 758.352844 53.815674 757.419067 52.906738 756.447876 52.309082 C 755.476624 51.711426 754.530396 51.350342 753.609009 51.22583 C 752.687561 51.101318 751.853394 51.039063 751.106323 51.039063 C 749.861145 51.039063 748.665894 51.176025 747.520386 51.449951 C 746.374817 51.723877 745.353882 52.134766 744.457397 52.682617 C 743.560852 53.230469 742.851196 53.890381 742.328247 54.662354 C 741.805237 55.434326 741.543823 56.343262 741.543823 57.38916 C 741.543823 58.684082 741.879944 59.904297 742.552368 61.049805 C 743.224731 62.195313 744.158508 63.278564 745.353882 64.299561 C 746.549194 65.320557 747.956116 66.266846 749.574829 67.138428 C 751.193481 68.01001 752.949036 68.844238 754.841675 69.641113 C 757.730347 70.836426 760.54425 72.168701 763.283569 73.637939 C 766.022827 75.107178 768.463196 76.750717 770.604858 78.568604 C 772.74646 80.38649 774.452209 82.428452 775.72229 84.69458 C 776.99231 86.960709 777.627319 89.488266 777.627319 92.277344 C 777.627319 95.215836 777.141724 97.979965 776.170532 100.569824 C 775.19928 103.159683 773.618042 105.413315 771.426636 107.330811 C 769.235168 109.248306 766.396362 110.754875 762.910034 111.850586 C 759.423645 112.946297 755.165405 113.494141 750.135132 113.494141 C 745.901672 113.494141 742.303345 113.008553 739.339966 112.037354 C 736.376526 111.066154 733.86145 109.821045 731.794556 108.302002 C 729.7276 106.782959 728.034302 105.064713 726.714478 103.147217 C 725.394592 101.229721 724.236694 99.324722 723.240601 97.432129 Z M 688.471191 47.527832 L 709.090332 41.850098 L 709.090332 112 L 688.471191 112 Z M 687.574707 22.052734 C 687.574707 20.658203 687.861084 19.35083 688.433838 18.130615 C 689.006592 16.9104 689.791016 15.8396 690.787109 14.918213 C 691.783203 13.996826 692.953613 13.274658 694.29834 12.751709 C 695.643066 12.22876 697.087402 11.967285 698.631348 11.967285 C 700.175293 11.967285 701.63208 12.22876 703.001709 12.751709 C 704.371338 13.274658 705.554199 13.996826 706.550293 14.918213 C 707.546387 15.8396 708.343262 16.9104 708.940918 18.130615 C 709.538574 19.35083 709.837402 20.658203 709.837402 22.052734 C 709.837402 23.447266 709.538574 24.754639 708.940918 25.974854 C 708.343262 27.195068 707.546387 28.265869 706.550293 29.187256 C 705.554199 30.108643 704.371338 30.830811 703.001709 31.35376 C 701.63208 31.876709 700.175293 32.138184 698.631348 32.138184 C 697.087402 32.138184 695.643066 31.876709 694.29834 31.35376 C 692.953613 30.830811 691.783203 30.108643 690.787109 29.187256 C 689.791016 28.265869 689.006592 27.195068 688.433838 25.974854 C 687.861084 24.754639 687.574707 23.447266 687.574707 22.052734 Z M 627.255554 52.159668 L 627.255554 45.361328 C 629.695984 45.361328 631.999451 44.751221 634.165955 43.531006 C 636.332458 42.310791 638.299744 40.642349 640.06781 38.525635 C 641.835876 36.40892 643.354919 33.943619 644.624939 31.129639 C 645.894958 28.315659 646.828796 25.314957 647.426453 22.127441 L 658.856628 22.127441 L 658.856628 43.867188 L 675.66571 43.867188 L 675.66571 52.159668 L 658.856628 52.159668 L 658.856628 96.162109 C 658.856628 97.556641 659.205261 98.751953 659.902527 99.748047 C 660.599792 100.744141 661.570984 101.242188 662.816101 101.242188 C 663.563171 101.242188 664.347595 101.005615 665.169373 100.532471 C 665.99115 100.059326 666.788025 99.499023 667.559998 98.851563 C 668.33197 98.204102 669.016785 97.556641 669.614441 96.90918 C 670.212097 96.261719 670.635437 95.763672 670.88446 95.415039 L 678.056335 101.018066 C 676.910828 102.761246 675.653259 104.392334 674.28363 105.911377 C 672.914001 107.43042 671.332703 108.750244 669.539734 109.87085 C 667.746765 110.991463 665.692322 111.875488 663.376404 112.522949 C 661.060486 113.17041 658.383484 113.494141 655.345398 113.494141 C 652.506531 113.494141 650.003845 113.08326 647.837341 112.261475 C 645.670837 111.43969 643.877869 110.294197 642.458435 108.824951 C 641.039001 107.355713 639.968201 105.600113 639.246033 103.558105 C 638.523865 101.516098 638.162781 99.250015 638.162781 96.759766 L 638.162781 52.159668 Z M 593.083801 112 L 572.464661 112 L 572.464661 43.867188 L 593.083801 43.867188 L 593.083801 48.947266 C 595.424683 46.60643 597.952209 44.713867 600.666565 43.269531 C 603.380981 41.825195 606.306946 41.103027 609.444641 41.103027 C 611.287476 41.103027 613.018127 41.352051 614.63678 41.850098 C 616.255493 42.348145 617.674866 43.020508 618.895081 43.867188 C 620.115356 44.713867 621.074036 45.69751 621.771301 46.818115 C 622.468628 47.938721 622.8172 49.121582 622.8172 50.366699 C 622.8172 51.562012 622.580627 52.670166 622.107483 53.691162 C 621.634338 54.712158 620.986938 55.571289 620.1651 56.268555 C 619.343323 56.96582 618.397095 57.513672 617.326233 57.912109 C 616.255432 58.310547 615.097534 58.509766 613.852356 58.509766 C 612.208801 58.509766 610.864136 58.248291 609.818176 57.725342 C 608.772278 57.202393 607.813599 56.64209 606.941956 56.044434 C 606.070374 55.446777 605.198853 54.886475 604.327209 54.363525 C 603.455627 53.840576 602.347534 53.579102 601.002747 53.579102 C 600.305481 53.579102 599.608276 53.840576 598.91095 54.363525 C 598.213684 54.886475 597.528931 55.58374 596.856506 56.455322 C 596.184143 57.326904 595.524292 58.335449 594.87677 59.480957 C 594.229309 60.626465 593.631653 61.796875 593.083801 62.992188 Z M 524.995117 113.494141 C 520.114258 113.494141 515.557129 112.597664 511.32373 110.804688 C 507.090332 109.011703 503.379913 106.596207 500.192383 103.558105 C 497.004883 100.520004 494.502228 96.971451 492.684326 92.912354 C 490.866455 88.853256 489.95752 84.582535 489.95752 80.100098 C 489.95752 74.721161 490.804199 69.740753 492.497559 65.158691 C 494.190918 60.57663 496.581543 56.604752 499.669434 53.24292 C 502.757355 49.881088 506.480194 47.24147 510.838135 45.323975 C 515.196045 43.406479 520.039551 42.447754 525.368652 42.447754 C 530.149902 42.447754 534.507813 43.207275 538.442383 44.726318 C 542.376953 46.245361 545.751221 48.312241 548.565186 50.927002 C 551.37915 53.541763 553.570557 56.629623 555.139404 60.190674 C 556.708252 63.751724 557.492676 67.549301 557.492676 71.583496 L 510.277832 71.583496 C 510.427246 75.368668 510.962646 78.979477 511.884033 82.416016 C 512.80542 85.852554 514.075439 88.878159 515.694092 91.49292 C 517.312744 94.107681 519.205322 96.186996 521.371826 97.730957 C 523.53833 99.274918 525.941406 100.046875 528.581055 100.046875 C 530.87207 100.046875 533.113281 99.648438 535.304688 98.851563 C 537.496094 98.054688 539.525635 96.983887 541.393311 95.63916 C 543.260986 94.294434 544.879639 92.71315 546.249268 90.895264 C 547.618896 89.077377 548.602539 87.147476 549.200195 85.105469 L 559.808594 86.674316 C 558.762695 90.359879 557.069336 93.833725 554.728516 97.095947 C 552.387695 100.35817 549.635986 103.209457 546.473389 105.649902 C 543.310791 108.090347 539.874268 110.007805 536.163818 111.402344 C 532.453369 112.796883 528.730469 113.494141 524.995117 113.494141 Z M 533.73584 64.561035 C 533.586426 62.568832 533.163086 60.738541 532.46582 59.070068 C 531.768555 57.401596 530.87207 55.969727 529.776367 54.774414 C 528.680664 53.579102 527.423096 52.657715 526.003662 52.010254 C 524.584229 51.362793 523.052734 51.039063 521.40918 51.039063 C 520.114258 51.039063 518.856689 51.362793 517.636475 52.010254 C 516.41626 52.657715 515.295654 53.56665 514.274658 54.737061 C 513.253662 55.907471 512.394531 57.326889 511.697266 58.995361 C 511 60.663834 510.551758 62.519028 510.352539 64.561035 Z M 432.028992 42.597168 L 451.975769 85.32959 L 472.296082 42.597168 L 486.41571 42.597168 L 452.797546 113.494141 L 443.309753 113.494141 L 410.289246 42.597168 Z M 381.720551 107.96582 C 379.230286 109.709 376.478607 111.066154 373.465424 112.037354 C 370.452209 113.008553 367.526215 113.494141 364.687347 113.494141 C 360.404114 113.494141 356.382416 112.535408 352.622162 110.61792 C 348.861877 108.700424 345.58725 106.135513 342.798187 102.923096 C 340.009094 99.710678 337.817719 96.000259 336.223969 91.791748 C 334.630219 87.583237 333.833344 83.188019 333.833344 78.605957 C 333.833344 74.073715 334.816956 69.628677 336.784271 65.270752 C 338.751556 60.912827 341.428528 57.052994 344.815277 53.691162 C 348.201996 50.32933 352.173889 47.615005 356.731049 45.548096 C 361.288208 43.481186 366.156555 42.447754 371.336273 42.447754 C 373.328461 42.447754 375.208588 42.609619 376.976654 42.93335 C 378.74472 43.25708 380.326019 43.692871 381.720551 44.240723 L 381.720551 16.449707 L 402.339691 10.697266 L 402.339691 112 L 381.720551 112 Z M 381.720551 65.606934 C 381.720551 63.415512 381.371918 61.410904 380.674652 59.593018 C 379.977386 57.775131 379.068451 56.21875 377.947845 54.923828 C 376.82724 53.628906 375.55722 52.620361 374.137787 51.898193 C 372.718353 51.176025 371.311371 50.814941 369.91684 50.814941 C 368.024231 50.814941 366.231293 51.412598 364.537933 52.60791 C 362.844574 53.803223 361.362885 55.471664 360.092865 57.613281 C 358.822845 59.754898 357.814301 62.307358 357.06723 65.270752 C 356.32016 68.234146 355.946625 71.458969 355.946625 74.945313 C 355.946625 78.730484 356.369965 82.328842 357.216644 85.740479 C 358.063324 89.152115 359.221283 92.165268 360.690521 94.780029 C 362.15976 97.394791 363.86554 99.474106 365.807953 101.018066 C 367.750336 102.562027 369.842102 103.333984 372.083344 103.333984 C 372.880219 103.333984 373.714447 103.209473 374.586029 102.960449 C 375.457611 102.711426 376.329193 102.375244 377.200775 101.951904 C 378.072357 101.528564 378.894135 101.018066 379.666107 100.42041 C 380.43808 99.822754 381.122894 99.150391 381.720551 98.40332 Z M 286.587891 19.587402 L 328.946777 112 L 306.23584 112 L 294.955078 87.271973 L 259.842773 87.271973 L 247.964355 112 L 232.873535 112 L 277.025391 19.587402 Z M 263.95166 78.830078 L 291.219727 78.830078 L 277.847168 49.619629 Z M 229.630539 74.123535 L 229.630539 84.881348 L 191.529953 84.881348 L 191.529953 74.123535 Z M 159.823563 65.308105 C 159.823563 61.821762 159.138763 59.157242 157.769119 57.314453 C 156.39949 55.471664 154.793304 54.550293 152.950516 54.550293 C 152.054031 54.550293 151.033051 54.724609 149.887527 55.073242 C 148.74202 55.421875 147.534271 55.932373 146.264236 56.604736 C 144.994217 57.2771 143.69931 58.073975 142.379471 58.995361 C 141.059647 59.916748 139.777191 60.950195 138.532059 62.095703 L 138.532059 112 L 117.763512 112 L 117.763512 43.867188 L 138.532059 43.867188 L 138.532059 49.171387 C 141.669769 46.830551 145.068909 45.124756 148.729568 44.053955 C 152.390244 42.983154 156.038391 42.447754 159.674149 42.447754 C 162.463226 42.447754 165.115311 42.995605 167.630447 44.091309 C 170.145599 45.187012 172.349442 46.668686 174.24202 48.536377 C 176.134613 50.404068 177.64119 52.595444 178.761795 55.110596 C 179.882416 57.625748 180.442703 60.327621 180.442703 63.216309 L 180.442703 112 L 159.823563 112 Z M 16.131348 21.604492 L 38.319336 21.604492 L 38.319336 79.651855 C 38.319336 83.188004 38.854733 86.487534 39.925537 89.550537 C 40.996342 92.613541 42.540272 95.302963 44.557373 97.618896 C 46.574474 99.93483 49.014877 101.752686 51.878662 103.07251 C 54.742447 104.392334 57.967266 105.052246 61.553223 105.052246 C 65.139175 105.052246 68.363998 104.392334 71.227783 103.07251 C 74.091568 101.752686 76.531975 99.93483 78.549072 97.618896 C 80.56617 95.302963 82.1101 92.613541 83.180908 89.550537 C 84.251717 86.487534 84.787109 83.188004 84.787109 79.651855 L 84.787109 21.604492 L 98.757324 21.604492 L 98.757324 79.651855 C 98.757324 84.333527 97.960457 88.753647 96.366699 92.912354 C 94.772942 97.07106 92.28273 100.719223 88.895996 103.856934 C 85.509262 106.994644 81.176292 109.472397 75.896973 111.290283 C 70.617653 113.108162 64.267616 114.01709 56.84668 114.01709 C 50.172817 114.01709 44.308376 113.108162 39.253174 111.290283 C 34.197975 109.472397 29.952166 106.994644 26.515625 103.856934 C 23.079084 100.719223 20.489267 97.058609 18.746094 92.875 C 17.002922 88.691391 16.131348 84.233917 16.131348 79.502441 Z"/>
</svg>
