<?xml version="1.0" encoding="UTF-8"?>
<!-- Generated by Pixelmator Pro 3.7.1 -->
<svg width="546" height="127" viewBox="0 0 546 127" xmlns="http://www.w3.org/2000/svg">
    <path id="Datona" fill="#ffffff" fill-rule="evenodd" stroke="none" d="M 480.702454 57.101463 C 480.702454 57.546341 481.647827 59.381447 483.538574 62.606827 C 484.539551 64.275131 485.040039 65.776581 485.040039 67.111221 C 485.040039 72.672226 482.148315 75.452682 476.364868 75.452682 C 473.473145 75.452682 471.109741 74.590744 469.274658 72.866829 C 467.439514 71.142921 466.521973 68.668312 466.521973 65.442924 C 466.521973 59.659485 469.747314 54.571243 476.198059 50.178047 C 482.648804 45.784851 490.712158 43.588287 500.388306 43.588287 C 509.174683 43.588287 516.098022 45.506805 521.158508 49.343903 C 526.219055 53.180992 528.749268 58.15802 528.749268 64.275124 L 528.749268 107.150246 C 528.749268 114.379547 530.973633 117.994141 535.422424 117.994141 C 536.645874 117.994141 537.785828 117.799515 538.842468 117.410248 C 539.899048 117.020973 541.039001 116.38147 542.262451 115.491707 L 545.43219 119.996094 C 541.428284 124.222458 536.979553 126.335609 532.085876 126.335609 C 524.411682 126.335609 518.906372 121.664436 515.569763 112.321953 C 510.676086 117.43808 506.449768 120.941452 502.890747 122.832199 C 498.553162 125.167816 493.270264 126.335609 487.041992 126.335609 C 479.367798 126.335609 473.389771 124.667336 469.107788 121.330734 C 464.825806 117.994125 462.684875 113.545395 462.684875 107.98439 C 462.684875 100.087769 467.272644 93.386856 476.448303 87.881462 C 485.623962 82.376068 498.441895 78.678055 514.902466 76.787315 L 514.902466 65.109268 C 514.902466 60.549248 513.20636 56.823425 509.814148 53.931709 C 506.421936 51.039986 502.167847 49.594147 497.051697 49.594147 C 492.714111 49.594147 488.904907 50.456085 485.623901 52.18 C 482.342896 53.903908 480.702454 55.54438 480.702454 57.101463 Z M 514.902466 93.63707 L 514.902466 82.459511 C 502.000916 84.239037 492.630737 86.936081 486.791748 90.550735 C 480.952637 94.165382 478.033203 99.420456 478.033203 106.316101 C 478.033203 110.542458 479.173157 113.851204 481.453125 116.242439 C 483.733154 118.633667 486.819458 119.829269 490.712158 119.829269 C 497.162964 119.829269 502.807251 117.35466 507.645386 112.405365 C 512.483459 107.45607 514.902466 101.200035 514.902466 93.63707 Z M 360.084839 51.262436 L 360.084839 45.75708 L 386.110229 44.42244 C 386.888794 47.981476 387.472656 51.123398 387.861938 53.848289 C 388.251221 56.573181 388.445862 59.103401 388.445862 61.439026 C 395.341492 50.094574 404.850708 44.42244 416.973633 44.42244 C 424.759033 44.42244 430.820435 46.869247 435.158081 51.762924 C 439.495605 56.656609 441.664429 63.385323 441.664429 71.949265 L 441.664429 109.986343 C 441.664429 112.766846 442.248291 114.740967 443.416138 115.908783 C 444.583923 117.076591 446.724854 117.660492 449.838989 117.660492 L 455.51123 117.660492 L 455.51123 124 L 414.137573 124 L 414.137573 117.660492 L 417.974609 117.660492 C 424.536621 117.660492 427.817566 115.324905 427.817566 110.653656 L 427.817566 77.287804 C 427.817566 61.494553 421.978638 53.598045 410.300476 53.598045 C 404.18335 53.598045 399.011719 56.100464 394.7854 61.10537 C 390.55896 66.110268 388.445862 72.72776 388.445862 80.958046 L 388.445862 109.986343 C 388.445862 112.878067 389.057556 114.87999 390.281006 115.992195 C 391.504395 117.104401 393.72876 117.660492 396.954102 117.660492 L 402.292725 117.660492 L 402.292725 124 L 360.919067 124 L 360.919067 117.660492 L 366.257568 117.660492 C 371.818604 117.660492 374.598999 115.714165 374.598999 111.821465 L 374.598999 61.439026 C 374.598999 54.654602 371.151245 51.262436 364.255615 51.262436 Z M 316.20874 43.421463 C 326.885864 43.421463 335.755615 47.258499 342.818054 54.932686 C 349.880493 62.606865 353.411743 72.672134 353.411743 85.128784 C 353.411743 97.362991 349.797119 107.28923 342.56781 114.907806 C 335.338501 122.526382 326.496643 126.335609 316.041992 126.335609 C 305.58728 126.335609 296.884399 122.470772 289.933167 114.740974 C 282.981903 107.011177 279.506348 97.084938 279.506348 84.961952 C 279.506348 72.838966 282.954102 62.884918 289.849731 55.09951 C 296.745361 47.314102 305.531616 43.421463 316.20874 43.421463 Z M 316.20874 49.427322 C 309.424316 49.427322 304.169312 52.402412 300.44342 58.352684 C 296.717529 64.302956 294.854614 72.894577 294.854614 84.127808 C 294.854614 96.028351 296.689697 105.037041 300.359985 111.154144 C 304.030273 117.271255 309.368774 120.329758 316.37561 120.329758 C 323.382446 120.329758 328.748779 117.215637 332.474609 110.98732 C 336.2005 104.758995 338.063416 95.694695 338.063416 83.794144 C 338.063416 72.560921 336.144897 64.02491 332.3078 58.185852 C 328.470703 52.346802 323.104431 49.427322 316.20874 49.427322 Z M 214.94342 53.431221 L 214.94342 47.592194 C 229.513245 45.145355 236.798035 33.967911 236.798035 14.059509 L 242.470245 14.059509 L 242.470245 45.75708 L 267.828278 45.75708 L 267.828278 53.431221 L 242.470245 53.431221 L 242.470245 103.646828 C 242.470245 107.873192 243.471191 111.209747 245.473175 113.656586 C 247.475128 116.103424 250.255585 117.326828 253.814636 117.326828 C 258.152222 117.326828 261.572174 115.380508 264.074646 111.487808 C 266.577087 107.5951 267.828278 101.922966 267.828278 94.471222 L 273.500488 94.471222 C 273.500488 104.481026 271.303925 112.127289 266.910736 117.410248 C 262.517548 122.693192 256.595154 125.334633 249.143433 125.334633 C 242.803864 125.334633 237.799042 123.610748 234.128784 120.162926 C 230.458496 116.715103 228.623413 111.932716 228.623413 105.815613 L 228.623413 53.431221 Z M 145.041931 57.101463 C 145.041931 57.546341 145.987305 59.381447 147.878052 62.606827 C 148.879028 64.275131 149.379517 65.776581 149.379517 67.111221 C 149.379517 72.672226 146.487854 75.452682 140.704407 75.452682 C 137.812683 75.452682 135.44928 74.590744 133.614136 72.866829 C 131.779022 71.142921 130.86145 68.668312 130.86145 65.442924 C 130.86145 59.659485 134.086792 54.571243 140.537567 50.178047 C 146.988342 45.784851 155.051666 43.588287 164.727783 43.588287 C 173.514191 43.588287 180.437531 45.506805 185.498047 49.343903 C 190.558563 53.180992 193.088776 58.15802 193.088776 64.275124 L 193.088776 107.150246 C 193.088776 114.379547 195.313141 117.994141 199.761963 117.994141 C 200.985352 117.994141 202.125366 117.799515 203.181946 117.410248 C 204.238525 117.020973 205.37854 116.38147 206.601929 115.491707 L 209.771729 119.996094 C 205.767792 124.222458 201.319031 126.335609 196.425354 126.335609 C 188.75116 126.335609 183.24585 121.664436 179.909271 112.321953 C 175.015564 117.43808 170.789307 120.941452 167.230225 122.832199 C 162.892639 125.167816 157.609802 126.335609 151.38147 126.335609 C 143.707275 126.335609 137.729309 124.667336 133.447327 121.330734 C 129.165344 117.994125 127.024384 113.545395 127.024384 107.98439 C 127.024384 100.087769 131.612152 93.386856 140.787811 87.881462 C 149.96344 82.376068 162.781372 78.678055 179.241943 76.787315 L 179.241943 65.109268 C 179.241943 60.549248 177.545868 56.823425 174.153656 53.931709 C 170.761444 51.039986 166.507324 49.594147 161.391235 49.594147 C 157.05365 49.594147 153.244385 50.456085 149.963409 52.18 C 146.682434 53.903908 145.041931 55.54438 145.041931 57.101463 Z M 179.241943 93.63707 L 179.241943 82.459511 C 166.340424 84.239037 156.970276 86.936081 151.131226 90.550735 C 145.292175 94.165382 142.372681 99.420456 142.372681 106.316101 C 142.372681 110.542458 143.512665 113.851204 145.792664 116.242439 C 148.072693 118.633667 151.158997 119.829269 155.051697 119.829269 C 161.502472 119.829269 167.14679 117.35466 171.984863 112.405365 C 176.822937 107.45607 179.241943 101.200035 179.241943 93.63707 Z M 0.901459 7.052689 L 0.901459 0.713165 L 64.630249 0.713165 C 72.193207 0.713165 78.588257 1.575119 83.815613 3.299026 C 89.042969 5.022934 94.325836 8.387299 99.664398 13.392197 C 112.121033 25.181519 118.349274 41.419403 118.349274 62.106339 C 118.349274 79.679115 114.20639 93.803848 105.920471 104.480972 C 97.634583 115.158104 86.04007 121.44194 71.136597 123.332687 C 69.468292 123.555122 67.271729 123.721954 64.546814 123.833176 C 61.82193 123.944389 59.625366 124 57.957062 124 L 0.901459 124 L 0.901459 117.660492 L 12.579514 117.660492 C 17.918076 117.660492 20.587311 115.714165 20.587311 111.821465 L 20.587311 12.558044 C 20.587311 8.887787 18.251724 7.052689 13.58049 7.052689 Z M 59.792206 7.052689 L 45.778534 7.052689 C 40.773621 7.052689 38.27121 9.054611 38.27121 13.058533 L 38.27121 111.654633 C 38.27121 115.658554 41.329712 117.660492 47.446838 117.660492 L 57.957062 117.660492 C 72.082031 117.660492 82.314117 113.350777 88.653656 104.731216 C 94.993195 96.111664 98.162933 82.570824 98.162933 64.108292 C 98.162933 44.533554 95.048828 30.130783 88.820496 20.899506 C 82.592163 11.668243 72.916168 7.052689 59.792206 7.052689 Z"/>
</svg>
